<svg xmlns="http://www.w3.org/2000/svg" xmlns:xlink="http://www.w3.org/1999/xlink" viewBox="0 0 649.39 385.17"><defs><style>.cls-1{fill:none;}.cls-2{isolation:isolate;}.cls-3{fill:url(#linear-gradient);}.cls-4{clip-path:url(#clip-path);}.cls-5,.cls-53{fill:#fff;}.cls-28,.cls-5{opacity:0.5;}.cls-5,.cls-52{mix-blend-mode:overlay;}.cls-6{fill:url(#linear-gradient-3);}.cls-7{fill:url(#linear-gradient-4);}.cls-8{fill:url(#linear-gradient-5);}.cls-9{fill:url(#linear-gradient-6);}.cls-10{fill:url(#linear-gradient-7);}.cls-11{fill:url(#linear-gradient-8);}.cls-12{fill:url(#linear-gradient-9);}.cls-13{fill:url(#linear-gradient-10);}.cls-14{fill:url(#linear-gradient-11);}.cls-15{fill:url(#linear-gradient-12);}.cls-16{fill:url(#linear-gradient-13);}.cls-17{fill:url(#linear-gradient-14);}.cls-18{fill:url(#linear-gradient-15);}.cls-19{fill:url(#linear-gradient-16);}.cls-20{fill:url(#linear-gradient-17);}.cls-21{fill:url(#linear-gradient-18);}.cls-22{fill:url(#linear-gradient-19);}.cls-23{fill:url(#linear-gradient-20);}.cls-24{fill:url(#linear-gradient-21);}.cls-25{fill:url(#linear-gradient-22);}.cls-26{fill:url(#linear-gradient-23);}.cls-27{fill:url(#linear-gradient-24);}.cls-29{fill:url(#linear-gradient-25);}.cls-30{fill:url(#linear-gradient-26);}.cls-31{fill:url(#linear-gradient-27);}.cls-32{fill:url(#linear-gradient-28);}.cls-33{fill:url(#linear-gradient-29);}.cls-34{fill:url(#linear-gradient-30);}.cls-35{fill:url(#linear-gradient-31);}.cls-36{fill:url(#linear-gradient-32);}.cls-37{fill:url(#linear-gradient-33);}.cls-38{fill:url(#linear-gradient-34);}.cls-39{fill:url(#linear-gradient-35);}.cls-40{fill:url(#linear-gradient-36);}.cls-41{fill:url(#linear-gradient-37);}.cls-42{fill:url(#linear-gradient-38);}.cls-43{fill:url(#linear-gradient-39);}.cls-44{fill:url(#linear-gradient-40);}.cls-45{fill:url(#linear-gradient-41);}.cls-46{fill:url(#linear-gradient-42);}.cls-47{fill:url(#linear-gradient-43);}.cls-48{fill:url(#linear-gradient-44);}.cls-49{fill:url(#linear-gradient-45);}.cls-50{fill:url(#linear-gradient-46);}.cls-51{fill:url(#linear-gradient-47);}.cls-54{opacity:0.8;}</style><linearGradient id="linear-gradient" x1="412.63" y1="-4.6" x2="214.64" y2="439.38" gradientUnits="userSpaceOnUse"><stop offset="0.09" stop-color="#2b82d5"/><stop offset="0.91" stop-color="#1d28a4"/></linearGradient><clipPath id="clip-path"><rect class="cls-1" y="-2.42" width="649.39" height="390.01" rx="2.42"/></clipPath><linearGradient id="linear-gradient-3" x1="1616.34" y1="-1692.32" x2="1658.88" y2="-1692.32" gradientTransform="matrix(0, 1, 1, 0, 2303.64, -1263)" gradientUnits="userSpaceOnUse"><stop offset="0" stop-color="#ddf4f7"/><stop offset="0.52" stop-color="#a6e5ee"/><stop offset="0.94" stop-color="#7fced6"/></linearGradient><linearGradient id="linear-gradient-4" x1="1584.42" y1="-1673.89" x2="1626.96" y2="-1673.89" xlink:href="#linear-gradient-3"/><linearGradient id="linear-gradient-5" x1="1584.42" y1="-1747.61" x2="1626.96" y2="-1747.61" xlink:href="#linear-gradient-3"/><linearGradient id="linear-gradient-6" x1="1616.34" y1="-1766.04" x2="1658.88" y2="-1766.04" gradientTransform="matrix(0, 1, 1, 0, 2303.64, -1263)" gradientUnits="userSpaceOnUse"><stop offset="0" stop-color="#82d3e6"/><stop offset="0.94" stop-color="#28a7d3"/></linearGradient><linearGradient id="linear-gradient-7" x1="1616.34" y1="-1802.9" x2="1658.88" y2="-1802.9" xlink:href="#linear-gradient-3"/><linearGradient id="linear-gradient-8" x1="1616.34" y1="-1913.47" x2="1658.88" y2="-1913.47" xlink:href="#linear-gradient-3"/><linearGradient id="linear-gradient-9" x1="1584.42" y1="-1895.05" x2="1626.96" y2="-1895.05" xlink:href="#linear-gradient-3"/><linearGradient id="linear-gradient-10" x1="1584.42" y1="-1931.9" x2="1626.96" y2="-1931.9" xlink:href="#linear-gradient-6"/><linearGradient id="linear-gradient-11" x1="1616.34" y1="-1987.19" x2="1658.88" y2="-1987.19" xlink:href="#linear-gradient-3"/><linearGradient id="linear-gradient-12" x1="1552.51" y1="-1692.32" x2="1595.06" y2="-1692.32" xlink:href="#linear-gradient-6"/><linearGradient id="linear-gradient-13" x1="1520.59" y1="-1673.89" x2="1563.14" y2="-1673.89" xlink:href="#linear-gradient-3"/><linearGradient id="linear-gradient-14" x1="1520.59" y1="-1710.75" x2="1563.14" y2="-1710.75" xlink:href="#linear-gradient-3"/><linearGradient id="linear-gradient-15" x1="1552.51" y1="-1802.9" x2="1595.06" y2="-1802.9" xlink:href="#linear-gradient-6"/><linearGradient id="linear-gradient-16" x1="1552.51" y1="-1876.62" x2="1595.06" y2="-1876.62" xlink:href="#linear-gradient-3"/><linearGradient id="linear-gradient-17" x1="1552.51" y1="-1987.19" x2="1595.06" y2="-1987.19" xlink:href="#linear-gradient-3"/><linearGradient id="linear-gradient-18" x1="1488.69" y1="-1692.32" x2="1531.23" y2="-1692.32" xlink:href="#linear-gradient-6"/><linearGradient id="linear-gradient-19" x1="1456.77" y1="-1673.89" x2="1499.31" y2="-1673.89" xlink:href="#linear-gradient-3"/><linearGradient id="linear-gradient-20" x1="1456.77" y1="-1747.61" x2="1499.31" y2="-1747.61" xlink:href="#linear-gradient-3"/><linearGradient id="linear-gradient-21" x1="1488.69" y1="-1766.04" x2="1531.23" y2="-1766.04" xlink:href="#linear-gradient-6"/><linearGradient id="linear-gradient-22" x1="1488.69" y1="-1802.9" x2="1531.23" y2="-1802.9" xlink:href="#linear-gradient-3"/><linearGradient id="linear-gradient-23" x1="1488.69" y1="-1839.76" x2="1531.23" y2="-1839.76" xlink:href="#linear-gradient-3"/><linearGradient id="linear-gradient-24" x1="1424.86" y1="-1692.32" x2="1467.41" y2="-1692.32" xlink:href="#linear-gradient-3"/><linearGradient id="linear-gradient-25" x1="1605.7" y1="-1968.76" x2="1648.24" y2="-1968.76" xlink:href="#linear-gradient-3"/><linearGradient id="linear-gradient-26" x1="1573.78" y1="-1987.19" x2="1616.32" y2="-1987.19" xlink:href="#linear-gradient-3"/><linearGradient id="linear-gradient-27" x1="1573.78" y1="-1913.47" x2="1616.32" y2="-1913.47" xlink:href="#linear-gradient-3"/><linearGradient id="linear-gradient-28" x1="1484.79" y1="-1950.33" x2="1527.33" y2="-1950.33" xlink:href="#linear-gradient-3"/><linearGradient id="linear-gradient-29" x1="1573.78" y1="-2060.91" x2="1616.32" y2="-2060.91" xlink:href="#linear-gradient-3"/><linearGradient id="linear-gradient-30" x1="1371.67" y1="-1747.61" x2="1414.22" y2="-1747.61" xlink:href="#linear-gradient-3"/><linearGradient id="linear-gradient-31" x1="1605.7" y1="-1895.05" x2="1648.24" y2="-1895.05" xlink:href="#linear-gradient-6"/><linearGradient id="linear-gradient-32" x1="1605.7" y1="-1858.19" x2="1648.24" y2="-1858.19" xlink:href="#linear-gradient-3"/><linearGradient id="linear-gradient-33" x1="1605.7" y1="-1747.61" x2="1648.24" y2="-1747.61" xlink:href="#linear-gradient-3"/><linearGradient id="linear-gradient-34" x1="1573.78" y1="-1766.04" x2="1616.32" y2="-1766.04" xlink:href="#linear-gradient-3"/><linearGradient id="linear-gradient-35" x1="1573.78" y1="-1729.18" x2="1616.32" y2="-1729.18" xlink:href="#linear-gradient-6"/><linearGradient id="linear-gradient-36" x1="1605.7" y1="-1673.89" x2="1648.24" y2="-1673.89" xlink:href="#linear-gradient-3"/><linearGradient id="linear-gradient-37" x1="1541.87" y1="-1858.19" x2="1584.42" y2="-1858.19" xlink:href="#linear-gradient-6"/><linearGradient id="linear-gradient-38" x1="1385.27" y1="-1858.19" x2="1427.81" y2="-1858.19" xlink:href="#linear-gradient-6"/><linearGradient id="linear-gradient-39" x1="1541.87" y1="-2042.48" x2="1584.42" y2="-2042.48" xlink:href="#linear-gradient-6"/><linearGradient id="linear-gradient-40" x1="1541.87" y1="-1784.47" x2="1584.42" y2="-1784.47" xlink:href="#linear-gradient-3"/><linearGradient id="linear-gradient-41" x1="1509.95" y1="-1692.32" x2="1552.5" y2="-1692.32" xlink:href="#linear-gradient-3"/><linearGradient id="linear-gradient-42" x1="1541.87" y1="-1673.89" x2="1584.42" y2="-1673.89" xlink:href="#linear-gradient-3"/><linearGradient id="linear-gradient-43" x1="1478.05" y1="-1821.33" x2="1520.59" y2="-1821.33" xlink:href="#linear-gradient-3"/><linearGradient id="linear-gradient-44" x1="1478.05" y1="-1747.61" x2="1520.59" y2="-1747.61" xlink:href="#linear-gradient-6"/><linearGradient id="linear-gradient-45" x1="1414.22" y1="-1747.61" x2="1456.77" y2="-1747.61" xlink:href="#linear-gradient-6"/><linearGradient id="linear-gradient-46" x1="1446.13" y1="-1692.32" x2="1488.67" y2="-1692.32" xlink:href="#linear-gradient-3"/><linearGradient id="linear-gradient-47" x1="1414.22" y1="-1673.89" x2="1456.77" y2="-1673.89" xlink:href="#linear-gradient-6"/></defs><g class="cls-2"><g id="OBJECTS"><rect class="cls-3" y="-2.42" width="649.39" height="390.01" rx="2.42"/><rect class="cls-3" y="-2.42" width="649.39" height="390.01" rx="2.42"/><g class="cls-4"><polygon class="cls-5" points="629.76 385.26 648.19 395.88 666.6 385.23 666.59 363.96 648.16 353.34 629.75 363.99 629.76 385.26"/><polygon class="cls-6" points="592.9 385.26 611.33 395.88 629.75 385.23 629.73 363.96 611.3 353.34 592.89 363.99 592.9 385.26"/><polygon class="cls-7" points="611.33 353.34 629.76 363.96 648.17 353.31 648.16 332.04 629.73 321.42 611.32 332.06 611.33 353.34"/><polygon class="cls-5" points="574.47 353.34 592.9 363.96 611.32 353.31 611.3 332.04 592.87 321.42 574.46 332.06 574.47 353.34"/><polygon class="cls-8" points="537.61 353.34 556.04 363.96 574.46 353.31 574.44 332.04 556.01 321.42 537.6 332.06 537.61 353.34"/><polygon class="cls-9" points="519.18 385.26 537.61 395.88 556.03 385.23 556.01 363.96 537.59 353.34 519.17 363.99 519.18 385.26"/><polygon class="cls-10" points="482.32 385.26 500.75 395.88 519.17 385.23 519.16 363.96 500.73 353.34 482.31 363.99 482.32 385.26"/><polygon class="cls-5" points="445.46 385.26 463.89 395.88 482.31 385.23 482.3 363.96 463.87 353.34 445.45 363.99 445.46 385.26"/><polygon class="cls-11" points="371.75 385.26 390.18 395.88 408.59 385.23 408.58 363.96 390.15 353.34 371.73 363.99 371.75 385.26"/><polygon class="cls-12" points="390.18 353.34 408.61 363.96 427.02 353.31 427.01 332.04 408.58 321.42 390.16 332.06 390.18 353.34"/><polygon class="cls-13" points="353.32 353.34 371.75 363.96 390.16 353.31 390.15 332.04 371.72 321.42 353.31 332.06 353.32 353.34"/><polygon class="cls-5" points="316.46 353.34 334.89 363.96 353.31 353.31 353.29 332.04 334.86 321.42 316.45 332.06 316.46 353.34"/><polygon class="cls-14" points="298.03 385.26 316.46 395.88 334.88 385.23 334.86 363.96 316.43 353.34 298.02 363.99 298.03 385.26"/><polygon class="cls-15" points="592.9 321.43 611.33 332.06 629.75 321.41 629.73 300.13 611.3 289.51 592.89 300.16 592.9 321.43"/><polygon class="cls-16" points="611.33 289.51 629.76 300.14 648.17 289.49 648.16 268.21 629.73 257.59 611.32 268.24 611.33 289.51"/><polygon class="cls-17" points="574.47 289.51 592.9 300.14 611.32 289.49 611.3 268.21 592.87 257.59 574.46 268.24 574.47 289.51"/><polygon class="cls-5" points="519.18 321.43 537.61 332.06 556.03 321.41 556.01 300.13 537.59 289.51 519.17 300.16 519.18 321.43"/><polygon class="cls-18" points="482.32 321.43 500.75 332.06 519.17 321.41 519.16 300.13 500.73 289.51 482.31 300.16 482.32 321.43"/><polygon class="cls-5" points="427.04 289.51 445.46 300.14 463.88 289.49 463.87 268.21 445.44 257.59 427.02 268.24 427.04 289.51"/><polygon class="cls-19" points="408.61 321.43 427.04 332.06 445.45 321.41 445.44 300.13 427.01 289.51 408.59 300.16 408.61 321.43"/><polygon class="cls-20" points="298.03 321.43 316.46 332.06 334.88 321.41 334.86 300.13 316.43 289.51 298.02 300.16 298.03 321.43"/><polygon class="cls-21" points="592.9 257.61 611.33 268.23 629.75 257.58 629.73 236.31 611.3 225.68 592.89 236.33 592.9 257.61"/><polygon class="cls-22" points="611.33 225.69 629.76 236.31 648.17 225.66 648.16 204.39 629.73 193.76 611.32 204.41 611.33 225.69"/><polygon class="cls-23" points="537.61 225.69 556.04 236.31 574.46 225.66 574.44 204.39 556.01 193.76 537.6 204.41 537.61 225.69"/><polygon class="cls-24" points="519.18 257.61 537.61 268.23 556.03 257.58 556.01 236.31 537.59 225.68 519.17 236.33 519.18 257.61"/><polygon class="cls-25" points="482.32 257.61 500.75 268.23 519.17 257.58 519.16 236.31 500.73 225.68 482.31 236.33 482.32 257.61"/><polygon class="cls-26" points="445.46 257.61 463.89 268.23 482.31 257.58 482.3 236.31 463.87 225.68 445.45 236.33 445.46 257.61"/><polygon class="cls-5" points="463.89 225.69 482.32 236.31 500.74 225.66 500.73 204.39 482.3 193.76 463.88 204.41 463.89 225.69"/><polygon class="cls-5" points="629.76 193.78 648.19 204.4 666.6 193.75 666.59 172.48 648.16 161.86 629.75 172.5 629.76 193.78"/><polygon class="cls-27" points="592.9 193.78 611.33 204.4 629.75 193.75 629.73 172.48 611.3 161.86 592.89 172.5 592.9 193.78"/><g class="cls-28"><polygon class="cls-5" points="316.43 374.62 298 385.24 279.59 374.59 279.6 353.32 298.03 342.7 316.45 353.34 316.43 374.62"/><polygon class="cls-5" points="204.16 374.62 185.74 385.24 167.32 374.59 167.33 353.32 185.76 342.7 204.18 353.34 204.16 374.62"/><polygon class="cls-5" points="611.3 82.82 592.87 93.44 574.46 82.8 574.47 61.52 592.9 50.9 611.32 61.55 611.3 82.82"/><polygon class="cls-29" points="353.29 374.62 334.86 385.24 316.45 374.59 316.46 353.32 334.89 342.7 353.31 353.34 353.29 374.62"/><polygon class="cls-30" points="334.86 342.7 316.43 353.32 298.02 342.67 298.03 321.4 316.46 310.78 334.88 321.42 334.86 342.7"/><polygon class="cls-5" points="371.72 342.7 353.29 353.32 334.88 342.67 334.89 321.4 353.32 310.78 371.73 321.42 371.72 342.7"/><polygon class="cls-5" points="408.58 274.98 390.15 285.6 371.73 274.96 371.75 253.68 390.18 243.06 408.59 253.71 408.58 274.98"/><polygon class="cls-31" points="408.58 342.7 390.15 353.32 371.73 342.67 371.75 321.4 390.18 310.78 408.59 321.42 408.58 342.7"/><polygon class="cls-32" points="371.72 253.71 353.29 264.33 334.88 253.68 334.89 232.41 353.32 221.78 371.73 232.43 371.72 253.71"/><polygon class="cls-33" points="261.14 342.7 242.72 353.32 224.3 342.67 224.31 321.4 242.74 310.78 261.16 321.42 261.14 342.7"/><polygon class="cls-34" points="574.44 140.59 556.01 151.22 537.6 140.57 537.61 119.3 556.04 108.67 574.46 119.32 574.44 140.59"/><polygon class="cls-35" points="427.01 374.62 408.58 385.24 390.16 374.59 390.18 353.32 408.61 342.7 427.02 353.34 427.01 374.62"/><polygon class="cls-36" points="463.87 374.62 445.44 385.24 427.02 374.59 427.04 353.32 445.46 342.7 463.88 353.34 463.87 374.62"/><polygon class="cls-5" points="500.73 374.62 482.3 385.24 463.88 374.59 463.89 353.32 482.32 342.7 500.74 353.34 500.73 374.62"/><polygon class="cls-37" points="574.44 374.62 556.01 385.24 537.6 374.59 537.61 353.32 556.04 342.7 574.46 353.34 574.44 374.62"/><polygon class="cls-38" points="556.01 342.7 537.59 353.32 519.17 342.67 519.18 321.4 537.61 310.78 556.03 321.42 556.01 342.7"/><polygon class="cls-39" points="592.87 342.7 574.44 353.32 556.03 342.67 556.04 321.4 574.47 310.78 592.89 321.42 592.87 342.7"/><polygon class="cls-5" points="629.73 342.7 611.3 353.32 592.89 342.67 592.9 321.4 611.33 310.78 629.75 321.42 629.73 342.7"/><polygon class="cls-40" points="648.16 374.62 629.73 385.24 611.32 374.59 611.33 353.32 629.76 342.7 648.17 353.34 648.16 374.62"/><polygon class="cls-41" points="463.87 310.79 445.44 321.42 427.02 310.77 427.04 289.5 445.46 278.87 463.88 289.52 463.87 310.79"/><polygon class="cls-42" points="463.87 154.18 445.44 164.81 427.02 154.16 427.04 132.89 445.46 122.26 463.88 132.91 463.87 154.18"/><polygon class="cls-43" points="279.57 310.79 261.14 321.42 242.73 310.77 242.74 289.5 261.17 278.87 279.59 289.52 279.57 310.79"/><polygon class="cls-5" points="519.16 278.87 500.73 289.5 482.31 278.85 482.32 257.57 500.75 246.95 519.17 257.6 519.16 278.87"/><polygon class="cls-44" points="537.59 310.79 519.16 321.42 500.74 310.77 500.75 289.5 519.18 278.87 537.6 289.52 537.59 310.79"/><polygon class="cls-5" points="592.87 278.87 574.44 289.5 556.03 278.85 556.04 257.57 574.47 246.95 592.89 257.6 592.87 278.87"/><polygon class="cls-45" points="629.73 278.87 611.3 289.5 592.89 278.85 592.9 257.57 611.33 246.95 629.75 257.6 629.73 278.87"/><polygon class="cls-46" points="648.16 310.79 629.73 321.42 611.32 310.77 611.33 289.5 629.76 278.87 648.17 289.52 648.16 310.79"/><polygon class="cls-47" points="500.73 246.96 482.3 257.59 463.88 246.94 463.89 225.67 482.32 215.04 500.74 225.69 500.73 246.96"/><polygon class="cls-48" points="574.44 246.96 556.01 257.59 537.6 246.94 537.61 225.67 556.04 215.04 574.46 225.69 574.44 246.96"/><polygon class="cls-49" points="574.44 183.14 556.01 193.76 537.6 183.12 537.61 161.84 556.04 151.22 574.46 161.87 574.44 183.14"/><polygon class="cls-5" points="592.87 215.04 574.44 225.67 556.03 215.02 556.04 193.75 574.47 183.12 592.89 193.77 592.87 215.04"/><polygon class="cls-50" points="629.73 215.04 611.3 225.67 592.89 215.02 592.9 193.75 611.33 183.12 629.75 193.77 629.73 215.04"/><polygon class="cls-5" points="648.16 246.96 629.73 257.59 611.32 246.94 611.33 225.67 629.76 215.04 648.17 225.69 648.16 246.96"/><polygon class="cls-51" points="648.16 183.14 629.73 193.76 611.32 183.12 611.33 161.84 629.76 151.22 648.17 161.87 648.16 183.14"/></g><g class="cls-52"><path class="cls-53" d="M605.17,92.76a1,1,0,0,1,0,1.37,1,1,0,0,1-1.38,0,1,1,0,0,1,1.38-1.37Z"/><circle class="cls-53" cx="611.32" cy="86.61" r="0.97"/><circle class="cls-53" cx="618.15" cy="79.78" r="0.97"/><path class="cls-53" d="M625.67,72.26a1,1,0,1,1-1.38,0A1,1,0,0,1,625.67,72.26Z"/><path class="cls-53" d="M618.84,92.76a1,1,0,0,1,0,1.37,1,1,0,0,1-1.38,0,1,1,0,0,1,1.38-1.37Z"/><path class="cls-53" d="M625.67,85.92a1,1,0,1,1-1.38,0A1,1,0,0,1,625.67,85.92Z"/><path class="cls-53" d="M632.5,79.09a1,1,0,1,1-1.38,0A1,1,0,0,1,632.5,79.09Z"/><path class="cls-53" d="M625.67,99.59a1,1,0,1,1-1.38,0A1,1,0,0,1,625.67,99.59Z"/><path class="cls-53" d="M632.5,92.76a1,1,0,0,1,0,1.37,1,1,0,0,1-1.38,0,1,1,0,1,1,1.38-1.37Z"/><path class="cls-53" d="M639.33,85.92a1,1,0,1,1-1.38,0A1,1,0,0,1,639.33,85.92Z"/><circle class="cls-53" cx="631.81" cy="107.11" r="0.97"/><circle class="cls-53" cx="638.64" cy="100.28" r="0.97"/><path class="cls-53" d="M646.16,92.76a1,1,0,0,1,0,1.37,1,1,0,0,1-1.38,0,1,1,0,0,1,1.38-1.37Z"/><path class="cls-53" d="M612,101a1,1,0,1,0-1.38,0A1,1,0,0,0,612,101Z"/><path class="cls-53" d="M618.84,107.8a1,1,0,1,0-1.38,0A1,1,0,0,0,618.84,107.8Z"/><path class="cls-53" d="M625.67,114.63a1,1,0,1,0-1.38,0A1,1,0,0,0,625.67,114.63Z"/><path class="cls-53" d="M407.22,133.75a1,1,0,1,1-1.38,0A1,1,0,0,1,407.22,133.75Z"/><circle class="cls-53" cx="413.36" cy="127.6" r="0.97"/><circle class="cls-53" cx="420.19" cy="120.77" r="0.97"/><path class="cls-53" d="M427.71,113.25a1,1,0,1,1-1.38,0A1,1,0,0,1,427.71,113.25Z"/><path class="cls-53" d="M420.88,133.75a1,1,0,1,1-1.38,0A1,1,0,0,1,420.88,133.75Z"/><path class="cls-53" d="M427.71,126.91a1,1,0,1,1-1.38,0A1,1,0,0,1,427.71,126.91Z"/><path class="cls-53" d="M434.54,120.08a1,1,0,1,1-1.38,0A1,1,0,0,1,434.54,120.08Z"/><path class="cls-53" d="M427.71,140.58a1,1,0,1,1-1.38,0A1,1,0,0,1,427.71,140.58Z"/><path class="cls-53" d="M434.54,133.75a1,1,0,1,1-1.38,0A1,1,0,0,1,434.54,133.75Z"/><path class="cls-53" d="M441.37,126.91a1,1,0,1,1-1.37,0A1,1,0,0,1,441.37,126.91Z"/><circle class="cls-53" cx="433.85" cy="148.1" r="0.97"/><circle class="cls-53" cx="440.68" cy="141.27" r="0.97"/><path class="cls-53" d="M448.21,133.75a1,1,0,1,1-1.38,0A1,1,0,0,1,448.21,133.75Z"/><path class="cls-53" d="M414.05,142a1,1,0,1,0-1.38,0A1,1,0,0,0,414.05,142Z"/><path class="cls-53" d="M420.88,148.79a1,1,0,1,0-1.38,0A1,1,0,0,0,420.88,148.79Z"/><path class="cls-53" d="M427.71,155.62a1,1,0,1,0-1.38,0A1,1,0,0,0,427.71,155.62Z"/><path class="cls-53" d="M541,192.35a2,2,0,1,1-2.83,0A2,2,0,0,1,541,192.35Z"/><path class="cls-53" d="M555,178.35a2,2,0,1,1-2.82,0A2,2,0,0,1,555,178.35Z"/><path class="cls-53" d="M569,164.34a2,2,0,1,1-2.83,0A2,2,0,0,1,569,164.34Z"/><path class="cls-53" d="M583,150.34a2,2,0,1,1-2.83,0A2,2,0,0,1,583,150.34Z"/><path class="cls-53" d="M569,192.35a2,2,0,1,1-2.83,0A2,2,0,0,1,569,192.35Z"/><path class="cls-53" d="M583,178.35a2,2,0,1,1-2.83,0A2,2,0,0,1,583,178.35Z"/><circle class="cls-53" cx="595.61" cy="165.76" r="2" transform="translate(57.24 469.71) rotate(-45)"/><path class="cls-53" d="M583,206.35a2,2,0,1,1-2.83,0A2,2,0,0,1,583,206.35Z"/><path class="cls-53" d="M597,192.35a2,2,0,1,1-2.82,0A2,2,0,0,1,597,192.35Z"/><path class="cls-53" d="M611,178.35a2,2,0,1,1-2.83,0A2,2,0,0,1,611,178.35Z"/><path class="cls-53" d="M597,220.36a2,2,0,1,1-2.82,0A2,2,0,0,1,597,220.36Z"/><path class="cls-53" d="M611,206.35a2,2,0,1,1-2.83,0A2,2,0,0,1,611,206.35Z"/><path class="cls-53" d="M625,192.35a2,2,0,1,1-2.83,0A2,2,0,0,1,625,192.35Z"/><circle class="cls-53" cx="553.6" cy="207.77" r="2"/><path class="cls-53" d="M569,223.18a2,2,0,1,0-2.83,0A2,2,0,0,0,569,223.18Z"/><path class="cls-53" d="M583,237.19a2,2,0,1,0-2.83,0A2,2,0,0,0,583,237.19Z"/><circle class="cls-53" cx="350.15" cy="255.04" r="2"/><path class="cls-53" d="M365.57,239.62a2,2,0,1,1-2.83,0A2,2,0,0,1,365.57,239.62Z"/><path class="cls-53" d="M379.57,225.62a2,2,0,1,1-2.82,0A2,2,0,0,1,379.57,225.62Z"/><circle class="cls-53" cx="392.16" cy="213.03" r="2"/><path class="cls-53" d="M379.57,253.63a2,2,0,1,1-2.82,0A2,2,0,0,1,379.57,253.63Z"/><path class="cls-53" d="M393.57,239.62a2,2,0,1,1-2.82,0A2,2,0,0,1,393.57,239.62Z"/><path class="cls-53" d="M407.58,225.62a2,2,0,1,1-2.83,0A2,2,0,0,1,407.58,225.62Z"/><path class="cls-53" d="M393.58,267.63a2,2,0,1,1-2.83,0A2,2,0,0,1,393.58,267.63Z"/><path class="cls-53" d="M407.58,253.63a2,2,0,1,1-2.83,0A2,2,0,0,1,407.58,253.63Z"/><path class="cls-53" d="M421.58,239.62a2,2,0,1,1-2.82,0A2,2,0,0,1,421.58,239.62Z"/><path class="cls-53" d="M407.58,281.64a2,2,0,1,1-2.83,0A2,2,0,0,1,407.58,281.64Z"/><path class="cls-53" d="M421.58,267.63a2,2,0,1,1-2.82,0A2,2,0,0,1,421.58,267.63Z"/><circle class="cls-53" cx="434.17" cy="255.04" r="2"/><path class="cls-53" d="M365.57,270.46a2,2,0,1,0-2.83,0A2,2,0,0,0,365.57,270.46Z"/><path class="cls-53" d="M379.57,284.46a2,2,0,1,0-2.82,0A2,2,0,0,0,379.57,284.46Z"/><circle class="cls-53" cx="392.16" cy="297.05" r="2"/><circle class="cls-53" cx="462.13" cy="363.97" r="2"/><path class="cls-53" d="M477.55,348.55a2,2,0,1,1-2.83,0A2,2,0,0,1,477.55,348.55Z"/><path class="cls-53" d="M491.55,334.55a2,2,0,1,1-2.82,0A2,2,0,0,1,491.55,334.55Z"/><circle class="cls-53" cx="504.14" cy="321.96" r="2"/><path class="cls-53" d="M491.55,362.56a2,2,0,1,1-2.82,0A2,2,0,0,1,491.55,362.56Z"/><path class="cls-53" d="M505.56,348.55a2,2,0,1,1-2.83,0A2,2,0,0,1,505.56,348.55Z"/><path class="cls-53" d="M519.56,334.55a2,2,0,1,1-2.83,0A2,2,0,0,1,519.56,334.55Z"/><path class="cls-53" d="M505.56,376.56a2,2,0,1,1-2.83,0A2,2,0,0,1,505.56,376.56Z"/><path class="cls-53" d="M519.56,362.56a2,2,0,1,1-2.83,0A2,2,0,0,1,519.56,362.56Z"/><path class="cls-53" d="M533.56,348.55a2,2,0,1,1-2.82,0A2,2,0,0,1,533.56,348.55Z"/><path class="cls-53" d="M533.56,376.56a2,2,0,1,1-2.82,0A2,2,0,0,1,533.56,376.56Z"/><circle class="cls-53" cx="546.15" cy="363.97" r="2"/><path class="cls-53" d="M477.55,379.39a2,2,0,1,0-2.83,0A2,2,0,0,0,477.55,379.39Z"/><path class="cls-53" d="M219.88,248.5a1,1,0,1,1-1.38,0A1,1,0,0,1,219.88,248.5Z"/><path class="cls-53" d="M226.72,241.66a1,1,0,1,1-1.38,0A1,1,0,0,1,226.72,241.66Z"/><circle class="cls-53" cx="232.86" cy="235.52" r="0.97"/><path class="cls-53" d="M240.38,228a1,1,0,1,1-1.38,0A1,1,0,0,1,240.38,228Z"/><path class="cls-53" d="M233.55,248.5a1,1,0,1,1-1.38,0A1,1,0,0,1,233.55,248.5Z"/><path class="cls-53" d="M240.38,241.66a1,1,0,1,1-1.38,0A1,1,0,0,1,240.38,241.66Z"/><path class="cls-53" d="M247.21,234.83a1,1,0,1,1-1.38,0A1,1,0,0,1,247.21,234.83Z"/><path class="cls-53" d="M240.38,255.33a1,1,0,1,1-1.38,0A1,1,0,0,1,240.38,255.33Z"/><path class="cls-53" d="M247.21,248.5a1,1,0,1,1-1.38,0A1,1,0,0,1,247.21,248.5Z"/><path class="cls-53" d="M254,241.66a1,1,0,1,1-1.38,0A1,1,0,0,1,254,241.66Z"/><path class="cls-53" d="M247.21,262.16a1,1,0,1,1-1.38,0A1,1,0,0,1,247.21,262.16Z"/><circle class="cls-53" cx="253.35" cy="256.02" r="0.97"/><path class="cls-53" d="M260.87,248.5a1,1,0,1,1-1.38,0A1,1,0,0,1,260.87,248.5Z"/><path class="cls-53" d="M226.72,256.71a1,1,0,1,0-1.38,0A1,1,0,0,0,226.72,256.71Z"/><path class="cls-53" d="M233.55,263.54a1,1,0,1,0-1.38,0A1,1,0,0,0,233.55,263.54Z"/><path class="cls-53" d="M240.38,270.37a1,1,0,1,0-1.38,0A1,1,0,0,0,240.38,270.37Z"/></g></g><g class="cls-54"><path class="cls-53" d="M618.7,43.45a1,1,0,0,1-.69-.28l-2.53-2.53a1,1,0,0,1,0-1.37,1,1,0,0,1,1.37,0l2.53,2.53a1,1,0,0,1-.68,1.65Z"/></g></g></g></svg>