<svg xmlns="http://www.w3.org/2000/svg" xmlns:xlink="http://www.w3.org/1999/xlink" viewBox="0 0 233 65"><defs><style>.cls-1{fill:url(#radial-gradient);}.cls-2{isolation:isolate;}.cls-3{clip-path:url(#clip-path);}.cls-10,.cls-11,.cls-12,.cls-13,.cls-14,.cls-15,.cls-16,.cls-17,.cls-4,.cls-6,.cls-7,.cls-8,.cls-9{opacity:0.83;}.cls-10,.cls-11,.cls-12,.cls-13,.cls-14,.cls-15,.cls-16,.cls-17,.cls-18,.cls-4,.cls-6,.cls-7,.cls-8,.cls-9{mix-blend-mode:screen;}.cls-4{fill:url(#radial-gradient-3);}.cls-5{opacity:0.66;mix-blend-mode:soft-light;fill:url(#radial-gradient-4);}.cls-6{fill:url(#radial-gradient-5);}.cls-7{fill:url(#radial-gradient-6);}.cls-8{fill:url(#radial-gradient-7);}.cls-9{fill:url(#radial-gradient-8);}.cls-10{fill:url(#radial-gradient-9);}.cls-11{fill:url(#radial-gradient-10);}.cls-12{fill:url(#radial-gradient-11);}.cls-13{fill:url(#radial-gradient-12);}.cls-14{fill:url(#radial-gradient-13);}.cls-15{fill:url(#radial-gradient-14);}.cls-16{fill:url(#radial-gradient-15);}.cls-17{fill:url(#radial-gradient-16);}.cls-18{fill:url(#radial-gradient-17);}</style><radialGradient id="radial-gradient" cx="78.5" cy="34" r="85.52" gradientUnits="userSpaceOnUse"><stop offset="0" stop-color="#00141f"/><stop offset="0.52" stop-color="#0c2145"/><stop offset="1"/></radialGradient><clipPath id="clip-path"><rect class="cls-1" width="233" height="65"/></clipPath><radialGradient id="radial-gradient-3" cx="-2587.58" cy="-1270.29" r="159.87" gradientTransform="matrix(-0.65, -0.76, -0.76, 0.65, -2557.72, -1164.05)" gradientUnits="userSpaceOnUse"><stop offset="0" stop-color="#fffff1"/><stop offset="0.41" stop-color="#19296b"/><stop offset="1"/></radialGradient><radialGradient id="radial-gradient-4" cx="-2792.5" cy="-1834.67" r="159.87" gradientTransform="matrix(-0.43, -0.9, -0.9, 0.43, -2781.86, -1738.49)" gradientUnits="userSpaceOnUse"><stop offset="0" stop-color="#fff"/><stop offset="0.41" stop-color="#192977"/><stop offset="1"/></radialGradient><radialGradient id="radial-gradient-5" cx="-2594.13" cy="-1055.45" r="111.82" gradientTransform="matrix(-0.71, -0.7, -0.7, 0.71, -2488.49, -1058.25)" gradientUnits="userSpaceOnUse"><stop offset="0" stop-color="#ffffc9"/><stop offset="0.41" stop-color="#192945"/><stop offset="1"/></radialGradient><radialGradient id="radial-gradient-6" cx="-2241.17" cy="5285.78" r="111.81" gradientTransform="matrix(-0.85, -0.52, -0.12, 0.2, -1215.4, -2188.66)" xlink:href="#radial-gradient-4"/><radialGradient id="radial-gradient-7" cx="-2862.22" cy="2705.27" r="68.1" gradientTransform="matrix(-0.39, -0.92, -0.22, 0.09, -477.87, -2869.64)" gradientUnits="userSpaceOnUse"><stop offset="0" stop-color="#717171"/><stop offset="0.41" stop-color="#0e1931"/><stop offset="1"/></radialGradient><radialGradient id="radial-gradient-8" cx="-2571.66" cy="197.4" r="68.09" gradientTransform="matrix(-0.87, -0.74, -1.3, 1.53, -1905.15, -2211.44)" xlink:href="#radial-gradient-7"/><radialGradient id="radial-gradient-9" cx="-3228.03" cy="-3.6" r="68.09" gradientTransform="matrix(0.56, -1, -1.75, -0.98, 1879.6, -3218.64)" xlink:href="#radial-gradient-7"/><radialGradient id="radial-gradient-10" cx="-3249.14" cy="-43.64" r="68.1" gradientTransform="matrix(0.71, -0.9, -1.58, -1.24, 2298.31, -2974.91)" xlink:href="#radial-gradient-7"/><radialGradient id="radial-gradient-11" cx="-3249.13" cy="-43.64" r="68.1" gradientTransform="matrix(0.71, -0.9, -1.58, -1.24, 2298.31, -2974.91)" xlink:href="#radial-gradient-7"/><radialGradient id="radial-gradient-12" cx="-3249.14" cy="-43.64" r="68.09" gradientTransform="matrix(0.71, -0.9, -1.58, -1.24, 2298.31, -2974.91)" xlink:href="#radial-gradient-7"/><radialGradient id="radial-gradient-13" cx="-2275.91" cy="118.77" r="68.09" gradientTransform="matrix(-1.1, -0.33, -0.57, 1.93, -2363.07, -940.58)" xlink:href="#radial-gradient-7"/><radialGradient id="radial-gradient-14" cx="-2112.81" cy="-271.12" r="68.09" gradientTransform="matrix(-0.7, 0.91, 1.6, 1.22, -897.98, 2260.89)" gradientUnits="userSpaceOnUse"><stop offset="0" stop-color="#003075"/><stop offset="0.41" stop-color="#0e1231"/><stop offset="1"/></radialGradient><radialGradient id="radial-gradient-15" cx="-3182.47" cy="-430.73" r="68.09" gradientTransform="matrix(1.14, -0.08, -0.15, -2.01, 3679.67, -1129.46)" xlink:href="#radial-gradient-7"/><radialGradient id="radial-gradient-16" cx="-2596.58" cy="-1015.53" r="111.24" gradientTransform="matrix(-0.71, -0.7, -0.7, 0.71, -2488.49, -1058.25)" xlink:href="#radial-gradient-4"/><radialGradient id="radial-gradient-17" cx="75.75" cy="35.4" r="12.21" gradientUnits="userSpaceOnUse"><stop offset="0" stop-color="#fff"/><stop offset="0.01" stop-color="#fcfcfc"/><stop offset="0.23" stop-color="#b1b1b1"/><stop offset="0.43" stop-color="#727272"/><stop offset="0.62" stop-color="#414141"/><stop offset="0.78" stop-color="#1d1d1d"/><stop offset="0.91" stop-color="#080808"/><stop offset="1"/></radialGradient></defs><g class="cls-2"><g id="Layer_1" data-name="Layer 1"><rect class="cls-1" width="233" height="65"/><g class="cls-3"><path class="cls-4" d="M189.23,68.15C148.75,55,107.39,34.84,64.07-2.35h-43a696.4,696.4,0,0,0,57.14,70.5Z"/><path class="cls-5" d="M187.09,68.15l.72-.44c-38-19.62-76.16-39.07-112.62-70.06H6a526.06,526.06,0,0,0,44.34,70.5Z"/><path class="cls-6" d="M107.85,68.15h53.41c-32-13.45-69.47-35.07-108.47-70.5H33.72A468,468,0,0,0,107.85,68.15Z"/><path class="cls-7" d="M-4.75,8.55v3.37C29.16,33.7,60.47,52.42,88.16,68.15h12.51C71.6,53.17,36.5,33.73-4.75,8.55Z"/><path class="cls-8" d="M91.46,68.15C82,51.45,70,28.41,56.12-2.35H53.63c11.82,28.18,23,51.91,32.37,70.5Z"/><path class="cls-9" d="M114.14,68.15h52.05l31.25-35.41C164.72,39.08,96.29,48.07,34.83-2.35H14.93C44.65,38.13,81.56,58.51,114.14,68.15Z"/><path class="cls-10" d="M51.51,68.15A175.23,175.23,0,0,1,57.8-2.35H33a187,187,0,0,0-16.2,70.5Z"/><path class="cls-11" d="M28.73-2.35H13.48A186.19,186.19,0,0,0,2.05,23.86c8,8.53,18.06,14.68,28.06,20.82A176.24,176.24,0,0,1,38.27,7.22C35,4.08,31.91.83,28.73-2.35Z"/><path class="cls-12" d="M29.74,48.51C19.57,42.19,9.2,36,.79,27.58A192.63,192.63,0,0,0-4.75,48.76V68.15H29C29,61.84,29.15,55.27,29.74,48.51Z"/><path class="cls-13" d="M33.65-2.35c2,2,3.91,4,5.9,5.92.71-2,1.47-3.95,2.27-5.92Z"/><path class="cls-14" d="M-4.75,39.19V51.36A209.94,209.94,0,0,0,26.57,68.15H169.7l16.61-52.28C155.66,37.15,85.44,79.5-4.75,39.19Z"/><path class="cls-15" d="M145.38,68.15a188,188,0,0,0,50.06-70.5H165.37c-6.49,23.11-18.49,47.26-39.2,70.5Z"/><path class="cls-16" d="M-2.2-2.35l-.74.66L.16,55.62c10.49-15.26,28.26-38.81,55.54-58Z"/><path class="cls-17" d="M113.13,68.15c-24-17.7-50.64-40.76-78.48-70.5H14.08c15.67,25,31.72,48.78,47.51,70.5Z"/></g><circle class="cls-18" cx="75.5" cy="35.4" r="15"/></g></g></svg>