<svg xmlns="http://www.w3.org/2000/svg" xmlns:xlink="http://www.w3.org/1999/xlink" viewBox="0 0 233 65"><defs><style>.cls-1{fill:none;}.cls-2{isolation:isolate;}.cls-3{fill:url(#linear-gradient);}.cls-4{clip-path:url(#clip-path);}.cls-10,.cls-11,.cls-12,.cls-13,.cls-14,.cls-15,.cls-16,.cls-17,.cls-5,.cls-7,.cls-8,.cls-9{opacity:0.83;mix-blend-mode:screen;}.cls-5{fill:url(#radial-gradient);}.cls-6{opacity:0.66;mix-blend-mode:soft-light;fill:url(#radial-gradient-2);}.cls-7{fill:url(#radial-gradient-3);}.cls-8{fill:url(#radial-gradient-4);}.cls-9{fill:url(#radial-gradient-5);}.cls-10{fill:url(#radial-gradient-6);}.cls-11{fill:url(#radial-gradient-7);}.cls-12{fill:url(#radial-gradient-8);}.cls-13{fill:url(#radial-gradient-9);}.cls-14{fill:url(#radial-gradient-10);}.cls-15{fill:url(#radial-gradient-11);}.cls-16{fill:url(#radial-gradient-12);}.cls-17{fill:url(#radial-gradient-13);}</style><linearGradient id="linear-gradient" x1="111.13" y1="-19.51" x2="111.13" y2="79.34" gradientUnits="userSpaceOnUse"><stop offset="0" stop-color="#001c9e"/><stop offset="0.41" stop-color="#0e1931"/><stop offset="1"/></linearGradient><clipPath id="clip-path"><rect class="cls-1" x="-10.73" y="-2.99" width="243.73" height="67.99"/></clipPath><radialGradient id="radial-gradient" cx="-1856.14" cy="-2020.12" r="167.22" gradientTransform="matrix(0.39, 0.92, 0.92, -0.39, 2705.96, 978.71)" gradientUnits="userSpaceOnUse"><stop offset="0" stop-color="#fffff1"/><stop offset="0.41" stop-color="#19296b"/><stop offset="1"/></radialGradient><radialGradient id="radial-gradient-2" cx="-1851.74" cy="-2387.35" r="167.22" gradientTransform="matrix(0.13, 0.99, 0.99, -0.13, 2761, 1655.64)" gradientUnits="userSpaceOnUse"><stop offset="0" stop-color="#fff"/><stop offset="0.41" stop-color="#192977"/><stop offset="1"/></radialGradient><radialGradient id="radial-gradient-3" cx="-1911.1" cy="-1865.68" r="116.96" gradientTransform="matrix(0.46, 0.89, 0.89, -0.46, 2664.58, 838.66)" gradientUnits="userSpaceOnUse"><stop offset="0" stop-color="#ffffc9"/><stop offset="0.41" stop-color="#192945"/><stop offset="1"/></radialGradient><radialGradient id="radial-gradient-4" cx="-1706.79" cy="2024.58" r="116.96" gradientTransform="matrix(0.65, 0.76, 0.18, -0.15, 936.91, 1598.14)" xlink:href="#radial-gradient-2"/><radialGradient id="radial-gradient-5" cx="-2012.65" cy="1322.6" r="71.23" gradientTransform="matrix(0.09, 1, 0.23, -0.02, 39.58, 2051.16)" gradientUnits="userSpaceOnUse"><stop offset="0" stop-color="#717171"/><stop offset="0.41" stop-color="#0e1931"/><stop offset="1"/></radialGradient><radialGradient id="radial-gradient-6" cx="-2013.44" cy="-349.96" r="71.23" gradientTransform="matrix(0.6, 0.97, 1.71, -1.06, 1952.96, 1614.91)" xlink:href="#radial-gradient-5"/><radialGradient id="radial-gradient-7" cx="-2672.13" cy="48.44" r="71.23" gradientTransform="matrix(-1.03, 0.5, 0.87, 1.81, -2656.1, 1253.82)" xlink:href="#radial-gradient-5"/><radialGradient id="radial-gradient-8" cx="-2731.59" cy="30.22" r="77.12" gradientTransform="matrix(-0.93, 0.67, 1.18, 1.63, -2412.62, 1796.61)" xlink:href="#radial-gradient-5"/><radialGradient id="radial-gradient-9" cx="-2689.24" cy="24.2" r="71.23" gradientTransform="matrix(-0.95, 0.64, 1.12, 1.67, -2423.25, 1705.45)" xlink:href="#radial-gradient-5"/><radialGradient id="radial-gradient-10" cx="-2731.59" cy="30.22" r="77.12" gradientTransform="matrix(-0.93, 0.67, 1.18, 1.63, -2412.62, 1796.61)" xlink:href="#radial-gradient-5"/><radialGradient id="radial-gradient-11" cx="-2689.24" cy="24.2" r="71.19" gradientTransform="matrix(-0.95, 0.64, 1.12, 1.67, -2423.25, 1705.45)" xlink:href="#radial-gradient-5"/><radialGradient id="radial-gradient-12" cx="-1982.82" cy="-530.03" r="71.23" gradientTransform="matrix(0.95, 0.65, 1.14, -1.66, 2641.22, 402.26)" xlink:href="#radial-gradient-5"/><radialGradient id="radial-gradient-13" cx="-1913.67" cy="-1823.93" r="116.36" gradientTransform="matrix(0.46, 0.89, 0.89, -0.46, 2664.58, 838.66)" xlink:href="#radial-gradient-2"/></defs><g class="cls-2"><g id="Layer_1" data-name="Layer 1"><rect class="cls-3" x="-10.73" y="-2.99" width="243.73" height="67.99"/><g class="cls-4"><path class="cls-5" d="M207.59,69.14c-7.71-26.83-16.21-51.63-25.32-74.53H131.5c16.32,20.81,31.93,45.23,46.55,74.53Z"/><path class="cls-6" d="M218.19,69.14A591.22,591.22,0,0,0,202.3-5.39H121.57a368.6,368.6,0,0,1,45.94,74.53Z"/><path class="cls-7" d="M198.34,69.14A511.47,511.47,0,0,0,165.41-5.39H142a466.19,466.19,0,0,1,44.4,74.53Z"/><path class="cls-8" d="M240.89,52.66c-16.93-20.87-33.26-40.24-48.77-58H186c16.81,18.23,35.12,38.86,54.88,62.13Z"/><path class="cls-9" d="M170.78,69.14c-1.69-27.74-4.08-52.77-6.68-74.53h-3.56c3.13,20.55,6.17,45.25,8.65,74.53Z"/><path class="cls-10" d="M201.72,69.14h11c-7.07-30.15-18.86-54.68-33-74.53H143C165.26,11.28,186.24,35,201.72,69.14Z"/><path class="cls-11" d="M136.11,69.14A195.22,195.22,0,0,0,234.88-5.39H191.72C171.91,24.3,140.63,53.19,90.39,69.14Z"/><path class="cls-12" d="M196.12-5.39A195.57,195.57,0,0,1,184.91,13.1C190,22,194.57,31.2,200.39,39.63A209.68,209.68,0,0,0,229.52,6.14a86.93,86.93,0,0,0-7.21-11.53Z"/><path class="cls-13" d="M240.89.06a9.76,9.76,0,0,1-1.72-1.37c-.27-.27-.51-.55-.74-.83s-.57-.48-.83-.74a9.44,9.44,0,0,1-1.81-2.51h-26.1c7.71,9.06,15.5,18.1,20.87,28.65,3.83-5.3,7.25-10.6,10.33-15.85Z"/><path class="cls-14" d="M172,61.8a212.07,212.07,0,0,0,25.46-19.47c-5.68-8.13-10.12-17-15-25.65A193.84,193.84,0,0,1,158.6,44C163.41,49.58,166.59,56.62,172,61.8Z"/><path class="cls-15" d="M163.79,69.14a67.45,67.45,0,0,0-5.12-7.61q-4.56,3.89-9.54,7.61Z"/><path class="cls-16" d="M240.89.05a9,9,0,0,1-1.72-1.36c-.27-.27-.51-.55-.74-.83s-.57-.48-.83-.74a9.44,9.44,0,0,1-1.81-2.51H215.52a212.39,212.39,0,0,1,25.37,19.86Z"/><path class="cls-17" d="M212.71,69.14c-6.09-25.68-12.8-50.73-19.9-74.53H162.42a681.72,681.72,0,0,1,36.86,74.53Z"/></g></g></g></svg>