<svg xmlns="http://www.w3.org/2000/svg" xmlns:xlink="http://www.w3.org/1999/xlink" viewBox="0 0 233 65"><defs><style>.cls-1{fill:none;}.cls-2{isolation:isolate;}.cls-3{fill:url(#linear-gradient);}.cls-4{clip-path:url(#clip-path);}.cls-10,.cls-11,.cls-12,.cls-13,.cls-14,.cls-15,.cls-16,.cls-17,.cls-5,.cls-7,.cls-8,.cls-9{opacity:0.83;mix-blend-mode:screen;}.cls-5{fill:url(#radial-gradient);}.cls-6{opacity:0.66;mix-blend-mode:soft-light;fill:url(#radial-gradient-2);}.cls-7{fill:url(#radial-gradient-3);}.cls-8{fill:url(#radial-gradient-4);}.cls-9{fill:url(#radial-gradient-5);}.cls-10{fill:url(#radial-gradient-6);}.cls-11{fill:url(#radial-gradient-7);}.cls-12{fill:url(#radial-gradient-8);}.cls-13{fill:url(#radial-gradient-9);}.cls-14{fill:url(#radial-gradient-10);}.cls-15{fill:url(#radial-gradient-11);}.cls-16{fill:url(#radial-gradient-12);}.cls-17{fill:url(#radial-gradient-13);}</style><linearGradient id="linear-gradient" x1="116.5" y1="-15.79" x2="116.5" y2="78.71" gradientUnits="userSpaceOnUse"><stop offset="0" stop-color="#001c9e"/><stop offset="0.41" stop-color="#0e1931"/><stop offset="1"/></linearGradient><clipPath id="clip-path"><rect class="cls-1" width="233" height="65"/></clipPath><radialGradient id="radial-gradient" cx="-1853.5" cy="-2016.15" r="159.85" gradientTransform="matrix(0.39, 0.92, 0.92, -0.39, 2705.96, 978.71)" gradientUnits="userSpaceOnUse"><stop offset="0" stop-color="#fffff1"/><stop offset="0.41" stop-color="#19296b"/><stop offset="1"/></radialGradient><radialGradient id="radial-gradient-2" cx="-1854.01" cy="-2383.57" r="159.86" gradientTransform="matrix(0.13, 0.99, 0.99, -0.13, 2761, 1655.64)" gradientUnits="userSpaceOnUse"><stop offset="0" stop-color="#fff"/><stop offset="0.41" stop-color="#192977"/><stop offset="1"/></radialGradient><radialGradient id="radial-gradient-3" cx="-1906.72" cy="-1862.66" r="111.81" gradientTransform="matrix(0.46, 0.89, 0.89, -0.46, 2664.58, 838.66)" gradientUnits="userSpaceOnUse"><stop offset="0" stop-color="#ffffc9"/><stop offset="0.41" stop-color="#192945"/><stop offset="1"/></radialGradient><radialGradient id="radial-gradient-4" cx="-1702.96" cy="2023.57" r="111.81" gradientTransform="matrix(0.65, 0.76, 0.18, -0.15, 936.91, 1598.14)" xlink:href="#radial-gradient-2"/><radialGradient id="radial-gradient-5" cx="-2010.3" cy="1335.25" r="68.1" gradientTransform="matrix(0.09, 1, 0.23, -0.02, 39.58, 2051.16)" gradientUnits="userSpaceOnUse"><stop offset="0" stop-color="#717171"/><stop offset="0.41" stop-color="#0e1931"/><stop offset="1"/></radialGradient><radialGradient id="radial-gradient-6" cx="-2010.17" cy="-348.68" r="68.09" gradientTransform="matrix(0.6, 0.97, 1.71, -1.06, 1952.96, 1614.91)" xlink:href="#radial-gradient-5"/><radialGradient id="radial-gradient-7" cx="-2674.24" cy="50.36" r="68.09" gradientTransform="matrix(-1.03, 0.5, 0.87, 1.81, -2656.1, 1253.82)" xlink:href="#radial-gradient-5"/><radialGradient id="radial-gradient-8" cx="-2732.61" cy="32.26" r="73.73" gradientTransform="matrix(-0.93, 0.67, 1.18, 1.63, -2412.62, 1796.61)" xlink:href="#radial-gradient-5"/><radialGradient id="radial-gradient-9" cx="-2690.64" cy="25.83" r="68.09" gradientTransform="matrix(-0.95, 0.64, 1.12, 1.67, -2423.25, 1705.45)" xlink:href="#radial-gradient-5"/><radialGradient id="radial-gradient-10" cx="-2732.61" cy="32.26" r="73.73" gradientTransform="matrix(-0.93, 0.67, 1.18, 1.63, -2412.62, 1796.61)" xlink:href="#radial-gradient-5"/><radialGradient id="radial-gradient-11" cx="-2690.64" cy="25.83" r="68.06" gradientTransform="matrix(-0.95, 0.64, 1.12, 1.67, -2423.25, 1705.45)" xlink:href="#radial-gradient-5"/><radialGradient id="radial-gradient-12" cx="-1979.12" cy="-530.4" r="68.09" gradientTransform="matrix(0.95, 0.65, 1.14, -1.66, 2641.22, 402.26)" xlink:href="#radial-gradient-5"/><radialGradient id="radial-gradient-13" cx="-1909.17" cy="-1822.75" r="111.24" gradientTransform="matrix(0.46, 0.89, 0.89, -0.46, 2664.58, 838.66)" xlink:href="#radial-gradient-2"/></defs><g class="cls-2"><g id="Layer_1" data-name="Layer 1"><rect class="cls-3" width="233" height="65"/><g class="cls-4"><path class="cls-5" d="M208.71,69c-7.37-25.65-15.5-49.36-24.21-71.25H136C151.58,17.6,166.49,41,180.47,69Z"/><path class="cls-6" d="M218.85,69a565.34,565.34,0,0,0-15.2-71.25H126.48A351.83,351.83,0,0,1,170.39,69Z"/><path class="cls-7" d="M199.87,69A489.33,489.33,0,0,0,168.39-2.29H146A445.16,445.16,0,0,1,188.46,69Z"/><path class="cls-8" d="M240.54,53.2c-16.18-19.94-31.8-38.46-46.62-55.49h-5.84c16.07,17.43,33.57,37.14,52.46,59.4Z"/><path class="cls-9" d="M173.52,69c-1.62-26.53-3.9-50.45-6.39-71.25h-3.4c3,19.65,5.9,43.26,8.27,71.25Z"/><path class="cls-10" d="M203.1,69h10.5c-6.76-28.83-18-52.28-31.5-71.25H146.94C168.25,13.64,188.3,36.36,203.1,69Z"/><path class="cls-11" d="M140.38,69A186.59,186.59,0,0,0,234.79-2.29H193.54C174.6,26.09,144.7,53.71,96.67,69Z"/><path class="cls-12" d="M197.75-2.29A185.45,185.45,0,0,1,187,15.38c4.9,8.48,9.23,17.31,14.79,25.37a200.57,200.57,0,0,0,27.85-32,82.61,82.61,0,0,0-6.89-11Z"/><path class="cls-13" d="M240.54,2.92a9.79,9.79,0,0,1-1.65-1.31,10.54,10.54,0,0,1-.7-.8,10.54,10.54,0,0,1-.8-.7,9.46,9.46,0,0,1-1.73-2.4H210.72C218.08,6.37,225.54,15,230.67,25.1,234.33,20,237.6,15,240.54,10Z"/><path class="cls-14" d="M174.64,61.94A202.35,202.35,0,0,0,199,43.33c-5.42-7.77-9.67-16.29-14.36-24.52a185,185,0,0,1-22.75,26.07C166.47,50.26,169.52,57,174.64,61.94Z"/><path class="cls-15" d="M166.84,69a63.75,63.75,0,0,0-4.9-7.27q-4.35,3.7-9.12,7.27Z"/><path class="cls-16" d="M240.54,2.91a9.73,9.73,0,0,1-1.65-1.3,10.54,10.54,0,0,1-.7-.8,10.54,10.54,0,0,1-.8-.7,9.46,9.46,0,0,1-1.73-2.4H216.29a202.83,202.83,0,0,1,24.25,19Z"/><path class="cls-17" d="M213.61,69c-5.83-24.55-12.24-48.5-19-71.25H165.53A651.31,651.31,0,0,1,200.77,69Z"/></g></g></g></svg>