<svg xmlns="http://www.w3.org/2000/svg" xmlns:xlink="http://www.w3.org/1999/xlink" viewBox="0 0 233 65"><defs><style>.cls-1{fill:none;}.cls-2{isolation:isolate;}.cls-3{fill:url(#linear-gradient);}.cls-4{clip-path:url(#clip-path);}.cls-10,.cls-11,.cls-12,.cls-13,.cls-14,.cls-15,.cls-16,.cls-17,.cls-5,.cls-7,.cls-8,.cls-9{opacity:0.83;}.cls-10,.cls-11,.cls-12,.cls-13,.cls-14,.cls-15,.cls-16,.cls-17,.cls-18,.cls-5,.cls-7,.cls-8,.cls-9{mix-blend-mode:screen;}.cls-5{fill:url(#radial-gradient);}.cls-6{opacity:0.66;mix-blend-mode:soft-light;fill:url(#radial-gradient-2);}.cls-7{fill:url(#radial-gradient-3);}.cls-8{fill:url(#radial-gradient-4);}.cls-9{fill:url(#radial-gradient-5);}.cls-10{fill:url(#radial-gradient-6);}.cls-11{fill:url(#radial-gradient-7);}.cls-12{fill:url(#radial-gradient-8);}.cls-13{fill:url(#radial-gradient-9);}.cls-14{fill:url(#radial-gradient-10);}.cls-15{fill:url(#radial-gradient-11);}.cls-16{fill:url(#radial-gradient-12);}.cls-17{fill:url(#radial-gradient-13);}.cls-18{fill:url(#radial-gradient-14);}</style><linearGradient id="linear-gradient" x1="116.5" y1="-26.54" x2="116.5" y2="59.03" gradientUnits="userSpaceOnUse"><stop offset="0" stop-color="#00919e"/><stop offset="0.41" stop-color="#0e1931"/><stop offset="1"/></linearGradient><clipPath id="clip-path"><rect class="cls-1" width="233" height="65"/></clipPath><radialGradient id="radial-gradient" cx="-1870.45" cy="-776.26" r="121.18" gradientTransform="matrix(-1.58, 0.04, -0.02, 0.93, -2822.57, 815.12)" gradientUnits="userSpaceOnUse"><stop offset="0" stop-color="#edfff1"/><stop offset="0.41" stop-color="#07526b"/><stop offset="1"/></radialGradient><radialGradient id="radial-gradient-2" cx="-2186.71" cy="-1189.48" r="121.17" gradientTransform="matrix(-1.52, -0.21, -0.43, 0.91, -3788.35, 643.94)" gradientUnits="userSpaceOnUse"><stop offset="0" stop-color="#edffff"/><stop offset="0.41" stop-color="#075277"/><stop offset="1" stop-color="#002900"/></radialGradient><radialGradient id="radial-gradient-3" cx="-1819.25" cy="-628.6" r="84.76" gradientTransform="matrix(-1.57, 0.12, 0.12, 0.93, -2608.25, 824.31)" gradientUnits="userSpaceOnUse"><stop offset="0" stop-color="#edffc9"/><stop offset="0.41" stop-color="#075245"/><stop offset="1"/></radialGradient><radialGradient id="radial-gradient-4" cx="-1366.99" cy="6630.07" r="84.78" gradientTransform="matrix(-1.5, 0.33, 0.11, 0.21, -2628.18, -852.43)" xlink:href="#radial-gradient-2"/><radialGradient id="radial-gradient-5" cx="-2354.48" cy="5942.39" r="51.62" gradientTransform="matrix(-1.5, -0.24, -0.11, 0.21, -2696.72, -1787.29)" gradientUnits="userSpaceOnUse"><stop offset="0" stop-color="#5f9a71"/><stop offset="0.41" stop-color="#004231"/><stop offset="1"/></radialGradient><radialGradient id="radial-gradient-6" cx="-1854.3" cy="320.04" r="51.62" gradientTransform="matrix(-1.79, 0.21, 0.46, 1.84, -3328.91, -158.67)" gradientUnits="userSpaceOnUse"><stop offset="0" stop-color="#5f9a71"/><stop offset="0.41" stop-color="#004231"/><stop offset="1" stop-color="#002900"/></radialGradient><radialGradient id="radial-gradient-7" cx="-3512.61" cy="313.18" r="51.62" gradientTransform="matrix(-0.61, -0.99, -2.99, 0.72, -1010.2, -3661.12)" gradientUnits="userSpaceOnUse"><stop offset="0" stop-color="#5f9a71"/><stop offset="0.41" stop-color="#004231"/><stop offset="1" stop-color="#001400"/></radialGradient><radialGradient id="radial-gradient-8" cx="-3646.48" cy="238.01" r="75.05" gradientTransform="matrix(-0.33, -1.04, -3.12, 0.44, -301.42, -3862.01)" xlink:href="#radial-gradient-6"/><radialGradient id="radial-gradient-9" cx="-3338.53" cy="395.96" r="51.62" gradientTransform="matrix(-1.44, -0.98, -3.6, 1.51, -3149.19, -3828.35)" xlink:href="#radial-gradient-6"/><radialGradient id="radial-gradient-10" cx="-3342.1" cy="393.64" r="51.59" gradientTransform="matrix(-1.44, -0.98, -3.6, 1.51, -3149.19, -3828.35)" gradientUnits="userSpaceOnUse"><stop offset="0" stop-color="#5f9a71"/><stop offset="0.41" stop-color="#004231"/><stop offset="1" stop-color="#001200"/></radialGradient><radialGradient id="radial-gradient-11" cx="-1459.91" cy="52.54" r="51.62" gradientTransform="matrix(-1.53, 0.62, 1.69, 1.54, -2145.93, 875.86)" xlink:href="#radial-gradient-6"/><radialGradient id="radial-gradient-12" cx="-3985.15" cy="-448.94" r="51.62" gradientTransform="matrix(1.09, -0.89, -2.53, -1.05, 3398.02, -3991.74)" gradientUnits="userSpaceOnUse"><stop offset="0" stop-color="#5f9a71"/><stop offset="0.41" stop-color="#004231"/><stop offset="1" stop-color="#001700"/></radialGradient><radialGradient id="radial-gradient-13" cx="-1813.08" cy="-597.2" r="84.32" gradientTransform="matrix(-1.57, 0.12, 0.12, 0.93, -2608.25, 824.31)" xlink:href="#radial-gradient-2"/><radialGradient id="radial-gradient-14" cx="179.89" cy="50.89" r="18.72" gradientUnits="userSpaceOnUse"><stop offset="0" stop-color="#fff"/><stop offset="0.01" stop-color="#fcfcfc"/><stop offset="0.23" stop-color="#b1b1b1"/><stop offset="0.43" stop-color="#727272"/><stop offset="0.62" stop-color="#414141"/><stop offset="0.78" stop-color="#1d1d1d"/><stop offset="0.91" stop-color="#080808"/><stop offset="1"/></radialGradient></defs><g class="cls-2"><g id="Layer_1" data-name="Layer 1"><rect class="cls-3" width="233" height="65"/><g class="cls-4"><path class="cls-5" d="M-1.7,48V59C90,67.29,168.9,67.89,236,63.42V24.18C176.58,39.58,102.21,49.39-1.7,48Z"/><path class="cls-6" d="M-1.7,37.45v22Q24.1,64.32,48.52,68H236v-48C170.82,35.05,98.5,45.65-1.7,37.45Z"/><path class="cls-7" d="M236,30.77C178.2,44.57,100.74,54.86-.42,52.37l.26,2.05C92.65,62.83,172.54,58,236,48.51Z"/><path class="cls-8" d="M184.79,68Q212.14,61.79,236,56V51.3C216.64,56.46,194.7,62,170,68Z"/><path class="cls-9" d="M236.79,55.15c-36.26-3-97.7-9.81-188.17-26.75l-.15.29C128,45.05,194.74,54.28,236.79,59Z"/><path class="cls-10" d="M157.72,68A316.64,316.64,0,0,0,236,43.26V5.81C201.84,34.38,135.71,72,14.47,65.53L15.08,68Z"/><path class="cls-11" d="M119.27-1H108.56c-.22,28.6,11.84,51.29,29,69h44.54C154.1,53.05,129.36,31.23,119.27-1Z"/><path class="cls-12" d="M151.62,71c-3.8-3.14-7.48-6.41-11-9.86-13.67,1.09-35.86,2.51-49.4,4.23,1.2,2.22,10.88,3.5,12.21,5.63Z"/><path class="cls-13" d="M201.43,68c3.7-1.22,7.4-2.43,11.07-3.68a284,284,0,0,1-39.34-16.15c-8.36,4-18.74,6.94-26.45,11.36q5.81,4.44,12,8.47Z"/><path class="cls-14" d="M123.53-1H112.91C122.17,22.48,137.82,41.57,157.1,57c7.72-4.12,17.72-7,25.7-10.91C160.23,34.19,139.83,18.79,123.53-1Z"/><path class="cls-15" d="M232.64,68c1.15-.69,2.28-1.38,3.4-2.07V25.34c-9.12,14-23,28.83-44.31,42.61Z"/><path class="cls-16" d="M178.89-1H150c-28.4,24.4-38.64,49.51-41,69h44.07C151.42,48,156.24,23.79,178.89-1Z"/><path class="cls-17" d="M-1.7,61.5V64Q19.65,66.17,41,68H236V46.23C177.39,56,98.1,63.55-1.7,61.5Z"/><circle class="cls-18" cx="179.5" cy="50.89" r="23"/></g></g></g></svg>