<svg xmlns="http://www.w3.org/2000/svg" xmlns:xlink="http://www.w3.org/1999/xlink" viewBox="0 0 233 65"><defs><style>.cls-1{fill:url(#linear-gradient);}.cls-2{isolation:isolate;}.cls-3{clip-path:url(#clip-path);}.cls-10,.cls-11,.cls-12,.cls-13,.cls-14,.cls-15,.cls-4,.cls-6,.cls-7,.cls-8,.cls-9{opacity:0.83;}.cls-10,.cls-11,.cls-12,.cls-13,.cls-14,.cls-15,.cls-16,.cls-4,.cls-6,.cls-7,.cls-8,.cls-9{mix-blend-mode:screen;}.cls-4{fill:url(#radial-gradient);}.cls-5{opacity:0.66;mix-blend-mode:soft-light;fill:url(#radial-gradient-2);}.cls-6{fill:url(#radial-gradient-3);}.cls-7{fill:url(#radial-gradient-4);}.cls-8{fill:url(#radial-gradient-5);}.cls-9{fill:url(#radial-gradient-6);}.cls-10{fill:url(#radial-gradient-7);}.cls-11{fill:url(#radial-gradient-8);}.cls-12{fill:url(#radial-gradient-9);}.cls-13{fill:url(#radial-gradient-10);}.cls-14{fill:url(#radial-gradient-11);}.cls-15{fill:url(#radial-gradient-12);}.cls-16{fill:url(#radial-gradient-13);}</style><linearGradient id="linear-gradient" x1="116.5" y1="-17.96" x2="116.5" y2="80.79" gradientUnits="userSpaceOnUse"><stop offset="0" stop-color="#001c9e"/><stop offset="0.41" stop-color="#0e1931"/><stop offset="1"/></linearGradient><clipPath id="clip-path"><rect class="cls-1" x="-5.25" y="-1.46" width="243.49" height="67.93"/></clipPath><radialGradient id="radial-gradient" cx="-2773.64" cy="-2975.28" r="167.08" gradientTransform="matrix(0.96, 0.29, 0.29, -0.96, 3620.89, -1908.26)" gradientUnits="userSpaceOnUse"><stop offset="0" stop-color="#e0ffff"/><stop offset="0.41" stop-color="#003d82"/><stop offset="1" stop-color="#001417"/></radialGradient><radialGradient id="radial-gradient-2" cx="-2599.85" cy="-3583.71" r="167.06" gradientTransform="matrix(0.87, 0.5, 0.5, -0.87, 4191.49, -1682.48)" gradientUnits="userSpaceOnUse"><stop offset="0" stop-color="#e0ffff"/><stop offset="0.41" stop-color="#003d8e"/><stop offset="1" stop-color="#001417"/></radialGradient><radialGradient id="radial-gradient-3" cx="-2896.71" cy="-2739.17" r="116.85" gradientTransform="matrix(0.98, 0.21, 0.21, -0.98, 3476.82, -1968.85)" gradientUnits="userSpaceOnUse"><stop offset="0" stop-color="#e0ffe0"/><stop offset="0.41" stop-color="#003d5c"/><stop offset="1" stop-color="#001417"/></radialGradient><radialGradient id="radial-gradient-4" cx="-2811.14" cy="-299.55" r="116.85" gradientTransform="matrix(1, 0, 0, -0.24, 2901.43, -15.58)" gradientUnits="userSpaceOnUse"><stop offset="0" stop-color="#e0ffff"/><stop offset="0.41" stop-color="#003d8e"/><stop offset="1"/></radialGradient><radialGradient id="radial-gradient-5" cx="-2674.55" cy="-3386.88" r="71.18" gradientTransform="matrix(0.82, 0.57, 0.13, -0.19, 2718.83, 913.05)" gradientUnits="userSpaceOnUse"><stop offset="0" stop-color="#528588"/><stop offset="0.41" stop-color="#002d48"/><stop offset="1" stop-color="#001417"/></radialGradient><radialGradient id="radial-gradient-6" cx="-2919.14" cy="-804.87" r="71.16" gradientTransform="matrix(1.14, 0.16, 0.28, -1.99, 3625.2, -1041.46)" xlink:href="#radial-gradient-5"/><radialGradient id="radial-gradient-7" cx="-2776.11" cy="-1396.7" r="71.16" gradientTransform="matrix(1.05, 0.46, 0.81, -1.84, 4098.97, -1278.43)" xlink:href="#radial-gradient-5"/><radialGradient id="radial-gradient-8" cx="-2121.54" cy="-655.29" r="71.16" gradientTransform="matrix(-0.05, 1.15, 2.01, 0.08, 1346.27, 2563.01)" gradientUnits="userSpaceOnUse"><stop offset="0" stop-color="#528588"/><stop offset="0.41" stop-color="#002d48"/><stop offset="1"/></radialGradient><radialGradient id="radial-gradient-9" cx="-2955.25" cy="-1373.54" r="71.12" gradientTransform="matrix(1.73, 0.35, 1.42, -1.94, 7051.67, -1609.74)" gradientUnits="userSpaceOnUse"><stop offset="0" stop-color="#9bced1"/><stop offset="0.41" stop-color="#002d48"/><stop offset="1" stop-color="#001417"/></radialGradient><radialGradient id="radial-gradient-10" cx="-3052.79" cy="-747.17" r="71.16" gradientTransform="matrix(1.1, -0.31, -0.55, -1.94, 3040.42, -2339.39)" xlink:href="#radial-gradient-5"/><radialGradient id="radial-gradient-11" cx="-2899.27" cy="-2697.45" r="116.25" gradientTransform="matrix(0.98, 0.21, 0.21, -0.98, 3476.82, -1968.85)" xlink:href="#radial-gradient-2"/><radialGradient id="radial-gradient-12" cx="-2793.82" cy="-2663.47" r="116.25" gradientTransform="matrix(0.96, 0.28, 0.28, -0.96, 3501.18, -1734.82)" xlink:href="#radial-gradient-2"/><radialGradient id="radial-gradient-13" cx="91.14" cy="49.89" r="11.91" gradientUnits="userSpaceOnUse"><stop offset="0" stop-color="#fff"/><stop offset="0.01" stop-color="#fcfcfc"/><stop offset="0.23" stop-color="#b1b1b1"/><stop offset="0.43" stop-color="#727272"/><stop offset="0.62" stop-color="#414141"/><stop offset="0.78" stop-color="#1d1d1d"/><stop offset="0.91" stop-color="#080808"/><stop offset="1"/></radialGradient></defs><g class="cls-2"><g id="Layer_1" data-name="Layer 1"><rect class="cls-1" x="-5.25" y="-1.46" width="243.49" height="67.93"/><g class="cls-3"><path class="cls-4" d="M-6.55,18.62V70.53H164.22C100.67,42.53,43.67,26.34-6.55,18.62Z"/><path class="cls-5" d="M-6.55,70.53h194C127.4,31.8,72.35,8.2,23.71-4.71H-6.55Z"/><path class="cls-6" d="M-6.55,46V70.53H138C83.71,52.72,34.41,46.44-6.55,46Z"/><path class="cls-7" d="M-6.55,46.21v8c54.49-5.52,138-10,256.8-5.21v-.72C144.23,41.09,55.55,42.65-6.55,46.21Z"/><path class="cls-8" d="M-6.55,7.57v6.84c19.78,9.88,51.17,27,94.45,56.12h3.69A1129.7,1129.7,0,0,0-6.55,7.57Z"/><path class="cls-9" d="M-6.55,61.12v9.41H74.64a184.43,184.43,0,0,1,65.89,0H175C100.48,29.94,34.71,42.53-6.55,61.12Z"/><path class="cls-10" d="M119.92-4.71H69.31c30.68,5.59,64.07,20,98.32,48.89l1.5-3.43A247.53,247.53,0,0,0,119.92-4.71Z"/><path class="cls-11" d="M116.27-4.71a211.21,211.21,0,0,1,18.58,26.23c12.48-.86,25-2,37.32,0A199.11,199.11,0,0,0,161.6-4.71Z"/><path class="cls-12" d="M52.57-4.71A431.73,431.73,0,0,1,174.8,30.59L177.44,27A350.19,350.19,0,0,0,119.86-4.71Z"/><path class="cls-13" d="M180.88,4.11C89.93-13.09,29,20.19-6.55,54.27V70.53h34C57.31,37,105.07,6.68,181.89,7.71Z"/><path class="cls-14" d="M-6.55-4.17v53.5c37.77.46,86,5.81,143.2,21.2h38.67C110.23,37.6,45.35,11.23-6.55-4.17Z"/><path class="cls-15" d="M27.45-4.71h-34V38.7C32.32,41.27,82.8,49.85,142.56,70.53h33.53C124.19,39.9,72.3,13.82,27.45-4.71Z"/></g><circle class="cls-16" cx="90.9" cy="49.89" r="14.63"/></g></g></svg>