<svg xmlns="http://www.w3.org/2000/svg" xmlns:xlink="http://www.w3.org/1999/xlink" viewBox="0 0 233 65"><defs><style>.cls-1{fill:none;}.cls-2{isolation:isolate;}.cls-3{fill:url(#linear-gradient);}.cls-4{clip-path:url(#clip-path);}.cls-10,.cls-11,.cls-12,.cls-13,.cls-14,.cls-15,.cls-16,.cls-17,.cls-5,.cls-7,.cls-8,.cls-9{opacity:0.83;}.cls-10,.cls-11,.cls-12,.cls-13,.cls-14,.cls-15,.cls-16,.cls-17,.cls-18,.cls-5,.cls-7,.cls-8,.cls-9{mix-blend-mode:screen;}.cls-5{fill:url(#radial-gradient);}.cls-6{opacity:0.66;mix-blend-mode:soft-light;fill:url(#radial-gradient-2);}.cls-7{fill:url(#radial-gradient-3);}.cls-8{fill:url(#radial-gradient-4);}.cls-9{fill:url(#radial-gradient-5);}.cls-10{fill:url(#radial-gradient-6);}.cls-11{fill:url(#radial-gradient-7);}.cls-12{fill:url(#radial-gradient-8);}.cls-13{fill:url(#radial-gradient-9);}.cls-14{fill:url(#radial-gradient-10);}.cls-15{fill:url(#radial-gradient-11);}.cls-16{fill:url(#radial-gradient-12);}.cls-17{fill:url(#radial-gradient-13);}.cls-18{fill:url(#radial-gradient-14);}</style><linearGradient id="linear-gradient" x1="116.5" y1="-29.71" x2="116.5" y2="60.46" gradientUnits="userSpaceOnUse"><stop offset="0" stop-color="#00919e"/><stop offset="0.41" stop-color="#0e1931"/><stop offset="1"/></linearGradient><clipPath id="clip-path"><rect class="cls-1" x="-6.26" y="-1.75" width="245.52" height="68.49"/></clipPath><radialGradient id="radial-gradient" cx="-1871.33" cy="-777" r="127.69" gradientTransform="matrix(-1.58, 0.04, -0.02, 0.93, -2822.57, 815.12)" gradientUnits="userSpaceOnUse"><stop offset="0" stop-color="#edfff1"/><stop offset="0.41" stop-color="#07526b"/><stop offset="1"/></radialGradient><radialGradient id="radial-gradient-2" cx="-2184.07" cy="-1189.74" r="127.68" gradientTransform="matrix(-1.52, -0.21, -0.43, 0.91, -3788.35, 643.94)" gradientUnits="userSpaceOnUse"><stop offset="0" stop-color="#edffff"/><stop offset="0.41" stop-color="#075277"/><stop offset="1" stop-color="#002900"/></radialGradient><radialGradient id="radial-gradient-3" cx="-1821.44" cy="-628.64" r="89.31" gradientTransform="matrix(-1.57, 0.12, 0.12, 0.93, -2608.25, 824.31)" gradientUnits="userSpaceOnUse"><stop offset="0" stop-color="#edffc9"/><stop offset="0.41" stop-color="#075245"/><stop offset="1"/></radialGradient><radialGradient id="radial-gradient-4" cx="-1368.13" cy="6640.23" r="89.34" gradientTransform="matrix(-1.5, 0.33, 0.11, 0.21, -2628.18, -852.43)" xlink:href="#radial-gradient-2"/><radialGradient id="radial-gradient-5" cx="-2355.97" cy="5943.57" r="54.39" gradientTransform="matrix(-1.5, -0.24, -0.11, 0.21, -2696.72, -1787.29)" gradientUnits="userSpaceOnUse"><stop offset="0" stop-color="#5f9a71"/><stop offset="0.41" stop-color="#004231"/><stop offset="1"/></radialGradient><radialGradient id="radial-gradient-6" cx="-1854.88" cy="320.22" r="54.39" gradientTransform="matrix(-1.79, 0.21, 0.46, 1.84, -3328.91, -158.67)" gradientUnits="userSpaceOnUse"><stop offset="0" stop-color="#5f9a71"/><stop offset="0.41" stop-color="#004231"/><stop offset="1" stop-color="#002900"/></radialGradient><radialGradient id="radial-gradient-7" cx="-3513.74" cy="312.26" r="54.39" gradientTransform="matrix(-0.61, -0.99, -2.99, 0.72, -1010.2, -3661.12)" gradientUnits="userSpaceOnUse"><stop offset="0" stop-color="#5f9a71"/><stop offset="0.41" stop-color="#004231"/><stop offset="1" stop-color="#001400"/></radialGradient><radialGradient id="radial-gradient-8" cx="-3647.31" cy="237.18" r="79.09" gradientTransform="matrix(-0.33, -1.04, -3.12, 0.44, -301.42, -3862.01)" xlink:href="#radial-gradient-6"/><radialGradient id="radial-gradient-9" cx="-3340.54" cy="395.07" r="54.4" gradientTransform="matrix(-1.44, -0.98, -3.6, 1.51, -3149.19, -3828.35)" xlink:href="#radial-gradient-6"/><radialGradient id="radial-gradient-10" cx="-3344.29" cy="392.63" r="54.36" gradientTransform="matrix(-1.44, -0.98, -3.6, 1.51, -3149.19, -3828.35)" gradientUnits="userSpaceOnUse"><stop offset="0" stop-color="#5f9a71"/><stop offset="0.41" stop-color="#004231"/><stop offset="1" stop-color="#001200"/></radialGradient><radialGradient id="radial-gradient-11" cx="-1460.8" cy="53.63" r="54.39" gradientTransform="matrix(-1.53, 0.62, 1.69, 1.54, -2145.93, 875.86)" xlink:href="#radial-gradient-6"/><radialGradient id="radial-gradient-12" cx="-3983.4" cy="-449.82" r="54.39" gradientTransform="matrix(1.09, -0.89, -2.53, -1.05, 3398.02, -3991.74)" gradientUnits="userSpaceOnUse"><stop offset="0" stop-color="#5f9a71"/><stop offset="0.41" stop-color="#004231"/><stop offset="1" stop-color="#001700"/></radialGradient><radialGradient id="radial-gradient-13" cx="-1814.94" cy="-595.55" r="88.86" gradientTransform="matrix(-1.57, 0.12, 0.12, 0.93, -2608.25, 824.31)" xlink:href="#radial-gradient-2"/><radialGradient id="radial-gradient-14" cx="183.3" cy="51.88" r="19.72" gradientUnits="userSpaceOnUse"><stop offset="0" stop-color="#fff"/><stop offset="0.01" stop-color="#fcfcfc"/><stop offset="0.23" stop-color="#b1b1b1"/><stop offset="0.43" stop-color="#727272"/><stop offset="0.62" stop-color="#414141"/><stop offset="0.78" stop-color="#1d1d1d"/><stop offset="0.91" stop-color="#080808"/><stop offset="1"/></radialGradient></defs><g class="cls-2"><g id="Layer_1" data-name="Layer 1"><rect class="cls-3" x="-6.26" y="-1.75" width="245.52" height="68.49"/><g class="cls-4"><path class="cls-5" d="M-8,48.79V60.44c96.6,8.72,179.76,9.35,250.51,4.65V23.73C179.81,40,101.44,50.3-8,48.79Z"/><path class="cls-6" d="M-8,37.71V60.89q27.18,5.13,52.92,9H242.46V19.24C173.74,35.19,97.53,46.35-8,37.71Z"/><path class="cls-7" d="M242.46,30.67C181.51,45.22,99.9,56.06-6.7,53.44l.27,2.16c97.8,8.86,182,3.8,248.89-6.23Z"/><path class="cls-8" d="M188.46,69.85q28.8-6.49,54-12.61V52.31C222,57.75,198.91,63.62,172.89,69.85Z"/><path class="cls-9" d="M243.25,56.36C205,53.22,140.3,46,45,28.18l-.17.3c83.85,17.24,154.13,27,198.44,32Z"/><path class="cls-10" d="M159.93,69.85c33.55-6.13,61.13-15.89,82.53-26V4.38C206.42,34.48,136.74,74.09,9,67.3l.64,2.55Z"/><path class="cls-11" d="M119.41-2.85H108.13c-.22,30.14,12.48,54.06,30.6,72.7h46.93C156.12,54.15,130.05,31.16,119.41-2.85Z"/><path class="cls-12" d="M153.51,73c-4-3.31-7.88-6.76-11.56-10.39-14.41,1.14-37.79,2.64-52.06,4.46,1.27,2.33,11.47,3.68,12.87,5.93Z"/><path class="cls-13" d="M206,69.85c3.9-1.28,7.8-2.56,11.67-3.87a299.08,299.08,0,0,1-41.45-17c-8.81,4.25-19.75,7.31-27.87,12,4.07,3.12,8.29,6.09,12.62,8.92Z"/><path class="cls-14" d="M123.91-2.85H112.72C122.48,22,139,42.06,159.28,58.35,167.41,54,178,51,186.36,46.85,162.58,34.28,141.08,18.06,123.91-2.85Z"/><path class="cls-15" d="M238.88,69.85c1.21-.72,2.41-1.45,3.58-2.17V25c-9.6,14.72-24.2,30.39-46.69,44.9Z"/><path class="cls-16" d="M182.25-2.85H151.84c-29.92,25.72-40.71,52.18-43.2,72.7h46.44C153.3,48.86,158.38,23.33,182.25-2.85Z"/><path class="cls-17" d="M-8,63.06v2.67Q14.45,68,37,69.85h205.5V47C180.67,57.31,97.11,65.22-8,63.06Z"/><circle class="cls-18" cx="182.89" cy="51.88" r="24.24"/></g></g></g></svg>