<svg xmlns="http://www.w3.org/2000/svg" xmlns:xlink="http://www.w3.org/1999/xlink" viewBox="0 0 232.81 65.67"><defs><style>.cls-1{fill:url(#radial-gradient);}.cls-2{isolation:isolate;}.cls-3{clip-path:url(#clip-path);}.cls-10,.cls-11,.cls-12,.cls-13,.cls-14,.cls-15,.cls-16,.cls-17,.cls-4,.cls-6,.cls-7,.cls-8,.cls-9{opacity:0.83;}.cls-10,.cls-11,.cls-12,.cls-13,.cls-14,.cls-15,.cls-16,.cls-17,.cls-18,.cls-4,.cls-6,.cls-7,.cls-8,.cls-9{mix-blend-mode:screen;}.cls-4{fill:url(#radial-gradient-3);}.cls-5{opacity:0.66;mix-blend-mode:soft-light;fill:url(#radial-gradient-4);}.cls-6{fill:url(#radial-gradient-5);}.cls-7{fill:url(#radial-gradient-6);}.cls-8{fill:url(#radial-gradient-7);}.cls-9{fill:url(#radial-gradient-8);}.cls-10{fill:url(#radial-gradient-9);}.cls-11{fill:url(#radial-gradient-10);}.cls-12{fill:url(#radial-gradient-11);}.cls-13{fill:url(#radial-gradient-12);}.cls-14{fill:url(#radial-gradient-13);}.cls-15{fill:url(#radial-gradient-14);}.cls-16{fill:url(#radial-gradient-15);}.cls-17{fill:url(#radial-gradient-16);}.cls-18{fill:url(#radial-gradient-17);}</style><radialGradient id="radial-gradient" cx="118.37" cy="228.06" r="85.52" gradientTransform="translate(-110.16 189.2) rotate(-90)" gradientUnits="userSpaceOnUse"><stop offset="0" stop-color="#00141f"/><stop offset="0.52" stop-color="#0c2145"/><stop offset="1"/></radialGradient><clipPath id="clip-path"><rect class="cls-1" x="83.91" y="-83.66" width="65" height="233" transform="translate(83.24 149.15) rotate(-89.84)"/></clipPath><radialGradient id="radial-gradient-3" cx="-3122.7" cy="-1341.19" r="159.87" gradientTransform="matrix(0.65, 0.76, 0.76, -0.65, 3187.71, 1598.97)" gradientUnits="userSpaceOnUse"><stop offset="0" stop-color="#fffff1"/><stop offset="0.41" stop-color="#19296b"/><stop offset="1"/></radialGradient><radialGradient id="radial-gradient-4" cx="-3415.27" cy="-2060.66" r="159.87" gradientTransform="matrix(0.42, 0.91, 0.91, -0.42, 3478.46, 2280.32)" gradientUnits="userSpaceOnUse"><stop offset="0" stop-color="#fff"/><stop offset="0.41" stop-color="#192977"/><stop offset="1"/></radialGradient><radialGradient id="radial-gradient-5" cx="-3092.63" cy="-1082.04" r="111.82" gradientTransform="matrix(0.71, 0.7, 0.7, -0.71, 3091.1, 1463.06)" gradientUnits="userSpaceOnUse"><stop offset="0" stop-color="#ffffc9"/><stop offset="0.41" stop-color="#192945"/><stop offset="1"/></radialGradient><radialGradient id="radial-gradient-6" cx="-2622.95" cy="7154.7" r="111.81" gradientTransform="matrix(0.85, 0.52, 0.12, -0.2, 1538.37, 2832.17)" xlink:href="#radial-gradient-4"/><radialGradient id="radial-gradient-7" cx="-3493.43" cy="3195.85" r="68.1" gradientTransform="matrix(0.39, 0.92, 0.22, -0.09, 843.44, 3562.7)" gradientUnits="userSpaceOnUse"><stop offset="0" stop-color="#717171"/><stop offset="0.41" stop-color="#0e1931"/><stop offset="1"/></radialGradient><radialGradient id="radial-gradient-8" cx="-2976.61" cy="-37.3" r="68.09" gradientTransform="matrix(0.87, 0.75, 1.31, -1.53, 2791.27, 2225.61)" xlink:href="#radial-gradient-7"/><radialGradient id="radial-gradient-9" cx="-3720.66" cy="-659.18" r="68.09" gradientTransform="matrix(-0.56, 1, 1.75, 0.99, -785.03, 4418.48)" xlink:href="#radial-gradient-7"/><radialGradient id="radial-gradient-10" cx="-3686.66" cy="-740.76" r="68.1" gradientTransform="matrix(-0.71, 0.9, 1.58, 1.25, -1286.27, 4297.43)" xlink:href="#radial-gradient-7"/><radialGradient id="radial-gradient-11" cx="-3686.65" cy="-740.76" r="68.1" gradientTransform="matrix(-0.71, 0.9, 1.58, 1.25, -1286.27, 4297.43)" xlink:href="#radial-gradient-7"/><radialGradient id="radial-gradient-12" cx="-3686.66" cy="-740.76" r="68.09" gradientTransform="matrix(-0.71, 0.9, 1.58, 1.25, -1286.27, 4297.43)" xlink:href="#radial-gradient-7"/><radialGradient id="radial-gradient-13" cx="-2476.02" cy="-43.27" r="68.09" gradientTransform="matrix(1.1, 0.33, 0.58, -1.93, 2906.75, 767.03)" xlink:href="#radial-gradient-7"/><radialGradient id="radial-gradient-14" cx="-1669.77" cy="-528.93" r="68.09" gradientTransform="matrix(0.7, -0.91, -1.59, -1.22, 416.83, -2105.36)" gradientUnits="userSpaceOnUse"><stop offset="0" stop-color="#003075"/><stop offset="0.41" stop-color="#0e1231"/><stop offset="1"/></radialGradient><radialGradient id="radial-gradient-15" cx="-3190.12" cy="-1239.9" r="68.09" gradientTransform="matrix(-1.14, 0.08, 0.14, 2.01, -3345.63, 2808.37)" xlink:href="#radial-gradient-7"/><radialGradient id="radial-gradient-16" cx="-3095.08" cy="-1042.12" r="111.24" gradientTransform="matrix(0.71, 0.7, 0.7, -0.71, 3091.1, 1463.06)" xlink:href="#radial-gradient-4"/><radialGradient id="radial-gradient-17" cx="115.62" cy="229.46" r="12.21" gradientTransform="translate(272.12 259.85) rotate(-179.84)" gradientUnits="userSpaceOnUse"><stop offset="0" stop-color="#fff"/><stop offset="0.01" stop-color="#fcfcfc"/><stop offset="0.23" stop-color="#b1b1b1"/><stop offset="0.43" stop-color="#727272"/><stop offset="0.62" stop-color="#414141"/><stop offset="0.78" stop-color="#1d1d1d"/><stop offset="0.91" stop-color="#080808"/><stop offset="1"/></radialGradient></defs><g class="cls-2"><g id="Layer_1" data-name="Layer 1"><rect class="cls-1" x="83.91" y="-83.66" width="65" height="233" transform="translate(83.24 149.15) rotate(-89.84)"/><g class="cls-3"><path class="cls-4" d="M43.77-3c40.45,13.31,81.76,33.54,125,70.86l43,.12a697.43,697.43,0,0,0-57-70.66Z"/><path class="cls-5" d="M45.92-3l-.72.43c37.92,19.73,76,39.29,112.42,70.39l69.2.2A526.76,526.76,0,0,0,182.68-2.62Z"/><path class="cls-6" d="M125.15-2.79l-53.4-.15c32,13.54,69.36,35.27,108.27,70.81l19.07.06A467.67,467.67,0,0,0,125.15-2.79Z"/><path class="cls-7" d="M237.59,57.13V53.76c-33.86-21.87-65.1-40.69-92.76-56.49l-12.5,0C161.37,12.3,196.41,31.83,237.59,57.13Z"/><path class="cls-8" d="M141.55-2.74C151,14,162.93,37.05,176.69,67.86h2.49c-11.75-28.22-22.86-52-32.17-70.59Z"/><path class="cls-9" d="M118.86-2.8l-52-.15L35.46,32.36c32.75-6.24,101.2-15,162.51,35.56l19.91.06C188.27,27.41,151.42,6.93,118.86-2.8Z"/><path class="cls-10" d="M181.5-2.62A175.44,175.44,0,0,1,175,67.86l24.84.07A186.82,186.82,0,0,0,216.26-2.52Z"/><path class="cls-11" d="M204.08,67.94l15.24,0A184.42,184.42,0,0,0,230.83,41.8c-7.94-8.55-18-14.72-28-20.9a175.79,175.79,0,0,1-8.27,37.44C197.78,61.49,200.9,64.75,204.08,67.94Z"/><path class="cls-12" d="M203.21,17.08c10.16,6.34,20.51,12.52,28.89,21a189.62,189.62,0,0,0,5.6-21.16l.06-19.38L204-2.56C204,3.75,203.82,10.31,203.21,17.08Z"/><path class="cls-13" d="M199.15,67.93c-2-2-3.9-4-5.88-5.94-.71,2-1.48,3.94-2.29,5.91Z"/><path class="cls-14" d="M237.67,26.49l0-12.17A209.31,209.31,0,0,0,206.44-2.55L63.31-3,46.54,49.26C77.26,28.08,147.6-14.08,237.67,26.49Z"/><path class="cls-15" d="M87.62-2.89A188.06,188.06,0,0,0,37.37,67.46l30.07.09C74,44.46,86.06,20.34,106.84-2.84Z"/><path class="cls-16" d="M235,68l.73-.66-2.93-57.32c-10.53,15.23-28.37,38.73-55.7,57.81Z"/><path class="cls-17" d="M119.87-2.8C143.8,15,170.4,38.1,198.15,67.92l20.57.06c-15.59-25.06-31.57-48.87-47.31-70.63Z"/></g><circle class="cls-18" cx="157.41" cy="30.06" r="15"/></g></g></svg>