<svg xmlns="http://www.w3.org/2000/svg" xmlns:xlink="http://www.w3.org/1999/xlink" viewBox="0 0 232.81 65.67"><defs><style>.cls-1{fill:url(#radial-gradient);}.cls-2{isolation:isolate;}.cls-3{clip-path:url(#clip-path);}.cls-10,.cls-11,.cls-12,.cls-13,.cls-14,.cls-15,.cls-16,.cls-17,.cls-4,.cls-6,.cls-7,.cls-8,.cls-9{opacity:0.83;}.cls-10,.cls-11,.cls-12,.cls-13,.cls-14,.cls-15,.cls-16,.cls-17,.cls-18,.cls-4,.cls-6,.cls-7,.cls-8,.cls-9{mix-blend-mode:screen;}.cls-4{fill:url(#radial-gradient-3);}.cls-5{opacity:0.66;mix-blend-mode:soft-light;fill:url(#radial-gradient-4);}.cls-6{fill:url(#radial-gradient-5);}.cls-7{fill:url(#radial-gradient-6);}.cls-8{fill:url(#radial-gradient-7);}.cls-9{fill:url(#radial-gradient-8);}.cls-10{fill:url(#radial-gradient-9);}.cls-11{fill:url(#radial-gradient-10);}.cls-12{fill:url(#radial-gradient-11);}.cls-13{fill:url(#radial-gradient-12);}.cls-14{fill:url(#radial-gradient-13);}.cls-15{fill:url(#radial-gradient-14);}.cls-16{fill:url(#radial-gradient-15);}.cls-17{fill:url(#radial-gradient-16);}.cls-18{fill:url(#radial-gradient-17);}</style><radialGradient id="radial-gradient" cx="116.35" cy="228.18" r="90.14" gradientTransform="translate(273 259.3) rotate(179.95)" gradientUnits="userSpaceOnUse"><stop offset="0" stop-color="#00141f"/><stop offset="0.52" stop-color="#0c2145"/><stop offset="1"/></radialGradient><clipPath id="clip-path"><rect class="cls-1" x="-6.38" y="-1.42" width="245.57" height="68.51"/></clipPath><radialGradient id="radial-gradient-3" cx="-3119.49" cy="-1341.99" r="168.49" gradientTransform="matrix(0.65, 0.76, 0.76, -0.65, 3193.52, 1587.51)" gradientUnits="userSpaceOnUse"><stop offset="0" stop-color="#fffff1"/><stop offset="0.41" stop-color="#19296b"/><stop offset="1"/></radialGradient><radialGradient id="radial-gradient-4" cx="-3412.8" cy="-2058.99" r="168.49" gradientTransform="matrix(0.43, 0.9, 0.9, -0.43, 3486.81, 2267.78)" gradientUnits="userSpaceOnUse"><stop offset="0" stop-color="#fff"/><stop offset="0.41" stop-color="#192977"/><stop offset="1"/></radialGradient><radialGradient id="radial-gradient-5" cx="-3091.17" cy="-1082.28" r="117.85" gradientTransform="matrix(0.71, 0.7, 0.7, -0.71, 3096.41, 1451.97)" gradientUnits="userSpaceOnUse"><stop offset="0" stop-color="#ffffc9"/><stop offset="0.41" stop-color="#192945"/><stop offset="1"/></radialGradient><radialGradient id="radial-gradient-6" cx="-2620.25" cy="7163.12" r="117.84" gradientTransform="matrix(0.86, 0.52, 0.12, -0.2, 1548.8, 2826.86)" xlink:href="#radial-gradient-4"/><radialGradient id="radial-gradient-7" cx="-3491.33" cy="3204.66" r="71.77" gradientTransform="matrix(0.4, 0.92, 0.22, -0.09, 856.6, 3559.97)" gradientUnits="userSpaceOnUse"><stop offset="0" stop-color="#717171"/><stop offset="0.41" stop-color="#0e1931"/><stop offset="1"/></radialGradient><radialGradient id="radial-gradient-8" cx="-2974.49" cy="-37.4" r="71.77" gradientTransform="matrix(0.87, 0.74, 1.3, -1.53, 2799.42, 2215.62)" xlink:href="#radial-gradient-7"/><radialGradient id="radial-gradient-9" cx="-3720.81" cy="-658.05" r="71.77" gradientTransform="matrix(-0.56, 1, 1.76, 0.98, -768.68, 4421.81)" xlink:href="#radial-gradient-7"/><radialGradient id="radial-gradient-10" cx="-3687.25" cy="-739.23" r="71.77" gradientTransform="matrix(-0.71, 0.9, 1.58, 1.24, -1270.36, 4302.63)" xlink:href="#radial-gradient-7"/><radialGradient id="radial-gradient-11" cx="-3687.25" cy="-739.23" r="71.77" gradientTransform="matrix(-0.71, 0.9, 1.58, 1.24, -1270.36, 4302.63)" xlink:href="#radial-gradient-7"/><radialGradient id="radial-gradient-12" cx="-3687.25" cy="-739.23" r="71.77" gradientTransform="matrix(-0.71, 0.9, 1.58, 1.24, -1270.36, 4302.63)" xlink:href="#radial-gradient-7"/><radialGradient id="radial-gradient-13" cx="-2473.91" cy="-42.93" r="71.77" gradientTransform="matrix(1.1, 0.33, 0.57, -1.93, 2909.47, 756.62)" xlink:href="#radial-gradient-7"/><radialGradient id="radial-gradient-14" cx="-1671.44" cy="-528.94" r="71.77" gradientTransform="matrix(0.69, -0.91, -1.6, -1.22, 408.86, -2106.47)" gradientUnits="userSpaceOnUse"><stop offset="0" stop-color="#003075"/><stop offset="0.41" stop-color="#0e1231"/><stop offset="1"/></radialGradient><radialGradient id="radial-gradient-15" cx="-3190.63" cy="-1238.99" r="71.77" gradientTransform="matrix(-1.14, 0.08, 0.15, 2.01, -3335.26, 2821.25)" xlink:href="#radial-gradient-7"/><radialGradient id="radial-gradient-16" cx="-3093.76" cy="-1040.2" r="117.24" gradientTransform="matrix(0.71, 0.7, 0.7, -0.71, 3096.41, 1451.97)" xlink:href="#radial-gradient-4"/><radialGradient id="radial-gradient-17" cx="113.46" cy="229.65" r="12.86" gradientTransform="translate(273 259.3) rotate(179.95)" gradientUnits="userSpaceOnUse"><stop offset="0" stop-color="#fff"/><stop offset="0.01" stop-color="#fcfcfc"/><stop offset="0.23" stop-color="#b1b1b1"/><stop offset="0.43" stop-color="#727272"/><stop offset="0.62" stop-color="#414141"/><stop offset="0.78" stop-color="#1d1d1d"/><stop offset="0.91" stop-color="#080808"/><stop offset="1"/></radialGradient></defs><g class="cls-2"><g id="Layer_1" data-name="Layer 1"><rect class="cls-1" x="-6.38" y="-1.42" width="245.57" height="68.51"/><g class="cls-3"><path class="cls-4" d="M39.72-4.67c42.67,13.87,86.29,35,132,74.19l45.33,0A735.65,735.65,0,0,0,156.73-4.77Z"/><path class="cls-5" d="M42-4.67l-.75.46c40,20.65,80.3,41.11,118.76,73.74l72.93-.06A555.88,555.88,0,0,0,186.12-4.79Z"/><path class="cls-6" d="M125.49-4.74l-56.29,0C103,9.45,142.44,32.2,183.59,69.51l20.1,0A493.31,493.31,0,0,0,125.49-4.74Z"/><path class="cls-7" d="M244.22,58V54.42c-35.77-22.93-68.77-42.63-98-59.18H133.06C163.71,11,200.72,31.47,244.22,58Z"/><path class="cls-8" d="M142.76-4.76c10,17.59,22.7,41.86,37.32,74.27h2.62c-12.49-29.69-24.29-54.69-34.18-74.27Z"/><path class="cls-9" d="M118.86-4.74,64-4.69,31.1,32.66C65.58,26,137.69,16.41,202.51,69.49h21C192.12,26.84,153.21,5.39,118.86-4.74Z"/><path class="cls-10" d="M184.88-4.79a185,185,0,0,1-6.57,74.31l26.18,0a196.88,196.88,0,0,0,17-74.31Z"/><path class="cls-11" d="M209,69.49H225a196.33,196.33,0,0,0,12-27.64c-8.4-9-19-15.45-29.6-21.92a185.33,185.33,0,0,1-8.56,39.49C202.29,62.71,205.59,66.14,209,69.49Z"/><path class="cls-12" d="M207.83,15.89c10.73,6.65,21.66,13.11,30.53,22a201.46,201.46,0,0,0,5.82-22.32l0-20.43-35.6,0A206.73,206.73,0,0,1,207.83,15.89Z"/><path class="cls-13" d="M203.75,69.49c-2.06-2.08-4.12-4.17-6.21-6.23-.76,2.08-1.55,4.16-2.4,6.24Z"/><path class="cls-14" d="M244.19,25.68V12.85a220.52,220.52,0,0,0-33-17.66L60.3-4.69,42.84,50.42C75.12,28,149.1-16.73,244.19,25.68Z"/><path class="cls-15" d="M85.93-4.71C59.77,18.63,43.3,44.63,33.24,69.64l31.69,0c6.82-24.36,19.44-49.82,41.25-74.33Z"/><path class="cls-16" d="M241.54,69.46l.78-.69L239,8.37c-11,16.08-29.74,40.93-58.48,61.14Z"/><path class="cls-17" d="M119.92-4.74c25.29,18.63,53.42,42.92,82.78,74.23h21.68c-16.53-26.36-33.47-51.39-50.14-74.26Z"/></g><circle class="cls-18" cx="159.62" cy="29.75" r="15.81"/></g></g></svg>