<svg xmlns="http://www.w3.org/2000/svg" xmlns:xlink="http://www.w3.org/1999/xlink" viewBox="0 0 233 65"><defs><style>.cls-1{fill:url(#linear-gradient);}.cls-2{isolation:isolate;}.cls-3{clip-path:url(#clip-path);}.cls-10,.cls-11,.cls-12,.cls-13,.cls-14,.cls-15,.cls-4,.cls-6,.cls-7,.cls-8,.cls-9{opacity:0.83;}.cls-10,.cls-11,.cls-12,.cls-13,.cls-14,.cls-15,.cls-16,.cls-4,.cls-6,.cls-7,.cls-8,.cls-9{mix-blend-mode:screen;}.cls-4{fill:url(#radial-gradient);}.cls-5{opacity:0.66;mix-blend-mode:soft-light;fill:url(#radial-gradient-2);}.cls-6{fill:url(#radial-gradient-3);}.cls-7{fill:url(#radial-gradient-4);}.cls-8{fill:url(#radial-gradient-5);}.cls-9{fill:url(#radial-gradient-6);}.cls-10{fill:url(#radial-gradient-7);}.cls-11{fill:url(#radial-gradient-8);}.cls-12{fill:url(#radial-gradient-9);}.cls-13{fill:url(#radial-gradient-10);}.cls-14{fill:url(#radial-gradient-11);}.cls-15{fill:url(#radial-gradient-12);}.cls-16{fill:url(#radial-gradient-13);}</style><linearGradient id="linear-gradient" x1="116.5" y1="-15.79" x2="116.5" y2="78.71" gradientUnits="userSpaceOnUse"><stop offset="0" stop-color="#001c9e"/><stop offset="0.41" stop-color="#0e1931"/><stop offset="1"/></linearGradient><clipPath id="clip-path"><rect class="cls-1" width="233" height="65"/></clipPath><radialGradient id="radial-gradient" cx="-2773.77" cy="-2971.51" r="159.88" gradientTransform="matrix(0.96, 0.29, 0.29, -0.96, 3620.89, -1908.26)" gradientUnits="userSpaceOnUse"><stop offset="0" stop-color="#e0ffff"/><stop offset="0.41" stop-color="#003d82"/><stop offset="1" stop-color="#001417"/></radialGradient><radialGradient id="radial-gradient-2" cx="-2603.29" cy="-3580.81" r="159.86" gradientTransform="matrix(0.87, 0.5, 0.5, -0.87, 4191.49, -1682.48)" gradientUnits="userSpaceOnUse"><stop offset="0" stop-color="#e0ffff"/><stop offset="0.41" stop-color="#003d8e"/><stop offset="1" stop-color="#001417"/></radialGradient><radialGradient id="radial-gradient-3" cx="-2895.13" cy="-2736.1" r="111.81" gradientTransform="matrix(0.98, 0.21, 0.21, -0.98, 3476.82, -1968.85)" gradientUnits="userSpaceOnUse"><stop offset="0" stop-color="#e0ffe0"/><stop offset="0.41" stop-color="#003d5c"/><stop offset="1" stop-color="#001417"/></radialGradient><radialGradient id="radial-gradient-4" cx="-2810.01" cy="-295.81" r="111.82" gradientTransform="matrix(1, 0, 0, -0.24, 2901.43, -15.58)" gradientUnits="userSpaceOnUse"><stop offset="0" stop-color="#e0ffff"/><stop offset="0.41" stop-color="#003d8e"/><stop offset="1"/></radialGradient><radialGradient id="radial-gradient-5" cx="-2673.25" cy="-3377.5" r="68.11" gradientTransform="matrix(0.82, 0.57, 0.13, -0.19, 2718.83, 913.05)" gradientUnits="userSpaceOnUse"><stop offset="0" stop-color="#528588"/><stop offset="0.41" stop-color="#002d48"/><stop offset="1" stop-color="#001417"/></radialGradient><radialGradient id="radial-gradient-6" cx="-2918.29" cy="-803.47" r="68.09" gradientTransform="matrix(1.14, 0.16, 0.28, -1.99, 3625.2, -1041.46)" xlink:href="#radial-gradient-5"/><radialGradient id="radial-gradient-7" cx="-2773.85" cy="-1396.45" r="68.1" gradientTransform="matrix(1.05, 0.46, 0.81, -1.84, 4098.97, -1278.43)" xlink:href="#radial-gradient-5"/><radialGradient id="radial-gradient-8" cx="-2123.2" cy="-655.65" r="68.09" gradientTransform="matrix(-0.05, 1.15, 2.01, 0.08, 1346.27, 2563.01)" gradientUnits="userSpaceOnUse"><stop offset="0" stop-color="#528588"/><stop offset="0.41" stop-color="#002d48"/><stop offset="1"/></radialGradient><radialGradient id="radial-gradient-9" cx="-2952.28" cy="-1373.35" r="68.06" gradientTransform="matrix(1.73, 0.35, 1.42, -1.94, 7051.67, -1609.74)" gradientUnits="userSpaceOnUse"><stop offset="0" stop-color="#9bced1"/><stop offset="0.41" stop-color="#002d48"/><stop offset="1" stop-color="#001417"/></radialGradient><radialGradient id="radial-gradient-10" cx="-3051.21" cy="-746.85" r="68.09" gradientTransform="matrix(1.1, -0.31, -0.55, -1.94, 3040.42, -2339.39)" xlink:href="#radial-gradient-5"/><radialGradient id="radial-gradient-11" cx="-2897.58" cy="-2696.18" r="111.24" gradientTransform="matrix(0.98, 0.21, 0.21, -0.98, 3476.82, -1968.85)" xlink:href="#radial-gradient-2"/><radialGradient id="radial-gradient-12" cx="-2792.39" cy="-2662.36" r="111.24" gradientTransform="matrix(0.96, 0.28, 0.28, -0.96, 3501.18, -1734.82)" xlink:href="#radial-gradient-2"/><radialGradient id="radial-gradient-13" cx="92.24" cy="49.14" r="11.39" gradientUnits="userSpaceOnUse"><stop offset="0" stop-color="#fff"/><stop offset="0.01" stop-color="#fcfcfc"/><stop offset="0.23" stop-color="#b1b1b1"/><stop offset="0.43" stop-color="#727272"/><stop offset="0.62" stop-color="#414141"/><stop offset="0.78" stop-color="#1d1d1d"/><stop offset="0.91" stop-color="#080808"/><stop offset="1"/></radialGradient></defs><g class="cls-2"><g id="Layer_1" data-name="Layer 1"><rect class="cls-1" width="233" height="65"/><g class="cls-3"><path class="cls-4" d="M-1.25,19.22V68.89H162.16C101.36,42.1,46.81,26.6-1.25,19.22Z"/><path class="cls-5" d="M-1.25,68.89H184.43C126.93,31.83,74.26,9.25,27.71-3.11h-29Z"/><path class="cls-6" d="M-1.25,45.42V68.89H137.11C85.12,51.84,38,45.84-1.25,45.42Z"/><path class="cls-7" d="M-1.25,45.62v7.62c52.15-5.28,132-9.59,245.73-5v-.69C143,40.72,58.18,42.22-1.25,45.62Z"/><path class="cls-8" d="M-1.25,8.64v6.55c18.94,9.45,49,25.84,90.38,53.7h3.54A1081.72,1081.72,0,0,0-1.25,8.64Z"/><path class="cls-9" d="M-1.25,59.89v9H76.44a176.71,176.71,0,0,1,63.05,0h33C101.17,30.05,38.24,42.1-1.25,59.89Z"/><path class="cls-10" d="M119.77-3.11H71.35c29.36,5.35,61.3,19.12,94.07,46.79l1.44-3.28A236.71,236.71,0,0,0,119.77-3.11Z"/><path class="cls-11" d="M116.28-3.11A202,202,0,0,1,134.06,22c11.94-.83,23.95-1.91,35.71,0A191.36,191.36,0,0,0,159.66-3.11Z"/><path class="cls-12" d="M55.32-3.11a413.15,413.15,0,0,1,117,33.79l2.52-3.46A335.76,335.76,0,0,0,119.72-3.11Z"/><path class="cls-13" d="M178.1,5.34c-87-16.46-145.33,15.39-179.35,48V68.89H31.27C59.86,36.82,105.56,7.8,179.08,8.78Z"/><path class="cls-14" d="M-1.25-2.59v51.2c36.14.44,82.32,5.55,137,20.28h37C110.5,37.38,48.42,12.15-1.25-2.59Z"/><path class="cls-15" d="M31.29-3.11H-1.25V38.43C36,40.9,84.25,49.1,141.44,68.89h32.08C123.86,39.58,74.2,14.63,31.29-3.11Z"/></g><circle class="cls-16" cx="92" cy="49.14" r="14"/></g></g></svg>